# Blender 3.6.2
# www.blender.org
mtllib arcotext.mtl
g arco_Mesh
v -1.852944 5.652102 -1.000000
v -1.852944 0.044755 -1.000000
v -1.852944 5.652102 1.000000
v -1.852944 0.044755 1.000000
v -3.852944 5.652102 -1.000000
v -3.852944 0.044755 -1.000000
v -3.852944 5.652102 1.000000
v -3.852944 0.044755 1.000000
v 3.997051 5.652102 -1.000000
v 3.997051 0.044755 -1.000000
v 3.997051 5.652102 1.000000
v 3.997051 0.044755 1.000000
v 1.997051 5.652102 -1.000000
v 1.997051 0.044755 -1.000000
v 1.997051 5.652102 1.000000
v 1.997051 0.044755 1.000000
v 3.837820 6.758723 -0.999999
v 3.837820 6.758723 1.000000
v 1.918957 6.194839 -1.000000
v 1.918957 6.194839 1.000000
v 3.373044 7.775558 -0.999999
v 3.373044 7.775558 1.000001
v 1.691010 6.693541 -1.000000
v 1.691010 6.693541 1.000000
v 2.640436 8.620099 -0.999999
v 2.640436 8.620099 1.000001
v 1.331705 7.107742 -0.999999
v 1.331705 7.107742 1.000001
v 1.699437 9.223827 -0.999999
v 1.699437 9.223827 1.000001
v 0.870197 7.403838 -0.999999
v 0.870197 7.403838 1.000001
v 0.626396 9.537754 -0.999999
v 0.626396 9.537754 1.000001
v 0.343929 7.557802 -0.999999
v 0.343929 7.557802 1.000001
v -0.491621 9.536410 -0.999999
v -0.491621 9.536410 1.000001
v -0.204398 7.557144 -0.999999
v -0.204398 7.557144 1.000001
v -1.563904 9.219906 -0.999999
v -1.563904 9.219906 1.000001
v -0.730295 7.401916 -0.999999
v -0.730295 7.401916 1.000001
v -2.503449 8.613919 -0.999999
v -2.503449 8.613919 1.000001
v -1.191091 7.104712 -0.999999
v -1.191091 7.104712 1.000000
v -3.234026 7.767619 -0.999999
v -3.234026 7.767619 1.000001
v -1.549398 6.689648 -1.000000
v -1.549398 6.689648 1.000000
v -3.696357 6.749673 -0.999999
v -3.696357 6.749673 1.000000
v -1.776147 6.190400 -1.000000
v -1.776147 6.190400 1.000000
v -3.852929 5.642672 -1.000000
v -3.852929 5.642672 1.000000
v -1.852937 5.647476 -1.000000
v -1.852937 5.647476 1.000000
vn -0.0000 1.0000 -0.0000
vn -0.0000 -0.0000 1.0000
vn -1.0000 -0.0000 -0.0000
vn -0.0000 -1.0000 -0.0000
vn 1.0000 -0.0000 -0.0000
vn -0.0000 -0.0000 -1.0000
vn 0.9898 0.1424 -0.0000
vn -0.9095 -0.4157 -0.0000
vn -0.9898 -0.1424 -0.0000
vn 0.9095 0.4157 -0.0000
vn 0.5400 0.8417 -0.0000
vn 0.7554 0.6553 -0.0000
vn -0.7554 -0.6553 -0.0000
vn -0.2808 -0.9598 -0.0000
vn -0.5400 -0.8417 -0.0000
vn 0.2808 0.9598 -0.0000
vn 0.2831 -0.9591 -0.0000
vn -0.0012 1.0000 -0.0000
vn 0.0012 -1.0000 -0.0000
vn 0.5420 -0.8404 -0.0000
vn -0.2831 0.9591 -0.0000
vn -0.5420 0.8404 -0.0000
vn 0.9105 -0.4135 -0.0000
vn -0.7570 0.6535 -0.0000
vn 0.7570 -0.6535 -0.0000
vn -0.9105 0.4135 -0.0000
vn 0.0024 -1.0000 -0.0000
vn -0.9901 0.1400 -0.0000
vn 0.9901 -0.1400 -0.0000
vt 0.875000 0.500000
vt 0.625000 0.750000
vt 0.625000 0.500000
vt 0.625777 0.915557
vt 0.374223 0.667109
vt 0.625202 0.666535
vt 0.533867 0.367916
vt 0.322848 0.054338
vt 0.532070 0.051601
vt 0.375000 0.500000
vt 0.125000 0.750000
vt 0.125000 0.500000
vt 0.290646 0.748367
vt 0.037396 0.501633
vt 0.288366 0.499354
vt 0.998087 0.362058
vt 0.831979 0.023747
vt 0.999489 0.026577
vt 0.875000 0.750000
vt 0.374798 0.916132
vt 0.324644 0.370654
vt 0.375000 0.750000
vt 0.039676 0.750646
vt 0.830577 0.359227
vt 0.249609 0.989956
vt 0.481922 0.910716
vt 0.481922 0.989956
vt 0.734930 0.709632
vt 0.970606 0.991687
vt 0.735427 0.992289
vt 0.029394 0.711438
vt 0.265070 0.993493
vt 0.029891 0.994095
vt 0.374202 0.982186
vt 0.139610 0.626827
vt 0.374790 0.626782
vt 0.990084 0.361262
vt 0.761391 0.033385
vt 0.990084 0.033385
vt 0.078436 0.683202
vt 0.254529 0.642490
vt 0.254529 0.683202
vt 0.181142 0.039987
vt 0.046330 0.140081
vt 0.033893 0.041548
vt 0.762726 0.022419
vt 0.932951 0.126055
vt 0.755102 0.072581
vt 0.078436 0.723913
vt 0.254529 0.723913
vt 0.204346 0.132594
vt 0.135687 0.305091
vt 0.081205 0.230371
vt 0.889088 0.219819
vt 0.733590 0.118567
vt 0.187242 0.088312
vt 0.249609 0.910716
vt 0.481922 0.831476
vt 0.249609 0.752237
vt 0.481922 0.672997
vt 0.481922 0.752237
vt 0.249609 0.831476
vt 0.078436 0.642490
vt 0.254529 0.601779
vt 0.820465 0.297460
vt 0.699934 0.156646
vt 0.078435 0.561067
vt 0.254529 0.520356
vt 0.254529 0.561067
vt 0.078435 0.601779
vt 0.732649 0.352680
vt 0.656865 0.183729
vt 0.231067 0.169240
vt 0.205357 0.358180
vt 0.284562 0.385329
vt 0.344451 0.208105
vt 0.366874 0.384336
vt 0.632766 0.380997
vt 0.607878 0.197617
vt 0.265236 0.195277
vt 0.249609 0.672997
vt 0.481922 0.593757
vt 0.078435 0.479644
vt 0.254529 0.438933
vt 0.254529 0.479644
vt 0.249609 0.593757
vt 0.481921 0.514517
vt 0.078435 0.520356
vt 0.556947 0.197184
vt 0.078435 0.438933
vt 0.254529 0.398221
vt 0.528920 0.380114
vt 0.508205 0.182465
vt 0.383070 0.193856
vt 0.445616 0.355282
vt 0.249609 0.514517
vt 0.481921 0.435277
vt 0.514399 0.300523
vt 0.442917 0.129716
vt 0.567642 0.224504
vt 0.429537 0.350103
vt 0.465607 0.154654
vt 0.416804 0.167000
vt 0.249609 0.435277
vt 0.481921 0.356038
vt 0.078435 0.357510
vt 0.254529 0.316798
vt 0.254529 0.357510
vt 0.249609 0.356038
vt 0.481921 0.276798
vt 0.078435 0.398221
vt 0.342681 0.293399
vt 0.432608 0.116009
vt 0.233148 0.120106
vt 0.405124 0.019379
vt 0.411887 0.069664
vt 0.275398 0.214602
vt 0.459289 0.085030
vt 0.601024 0.133391
vt 0.249609 0.276798
vt 0.481921 0.197558
vt 0.464593 0.036568
vt 0.611838 0.034578
vt 0.249609 0.197558
vt 0.481921 0.118318
vt 0.078435 0.316798
vt 0.254529 0.276087
vt 0.970109 0.709030
vt 0.264573 0.710836
vt 0.139022 0.982231
vt 0.761391 0.361262
vt 0.948495 0.023776
vt 0.304081 0.208592
vt 0.219359 0.017578
vt 0.249609 0.118318
vt 0.078435 0.276087
s 0
g off
g arco_Material.001
usemtl Material.001
f 5/1/1 3/2/1 1/3/1
f 3/4/2 8/5/2 4/6/2
f 7/7/3 6/8/3 8/9/3
f 2/10/4 8/11/4 6/12/4
f 1/13/5 4/14/5 2/15/5
f 5/16/6 2/17/6 6/18/6
f 5/1/1 7/19/1 3/2/1
f 3/4/2 7/20/2 8/5/2
f 7/7/3 5/21/3 6/8/3
f 2/10/4 4/22/4 8/11/4
f 1/13/5 3/23/5 4/14/5
f 5/16/6 1/24/6 2/17/6
g arco_Material.002
usemtl Material.002
f 9/25/7 18/26/7 11/27/7
f 11/28/2 16/29/2 12/30/2
f 15/31/3 14/32/3 16/33/3
f 10/10/4 16/11/4 14/12/4
f 9/34/5 12/35/5 10/36/5
f 13/37/6 10/38/6 14/39/6
f 20/40/8 23/41/8 19/42/8
f 13/43/6 17/44/6 9/45/6
f 15/46/2 18/47/2 20/48/2
f 15/49/9 19/42/9 13/50/9
f 23/51/6 25/52/6 21/53/6
f 20/48/2 22/54/2 24/55/2
f 19/56/6 21/53/6 17/44/6
f 17/57/10 22/58/10 18/26/10
f 25/59/11 30/60/11 26/61/11
f 21/62/12 26/61/12 22/58/12
f 24/63/13 27/64/13 23/41/13
f 24/55/2 26/65/2 28/66/2
f 32/67/14 35/68/14 31/69/14
f 28/70/15 31/69/15 27/64/15
f 28/66/2 30/71/2 32/72/2
f 27/73/6 29/74/6 25/52/6
f 33/75/6 39/76/6 37/77/6
f 32/72/2 34/78/2 36/79/2
f 31/80/6 33/75/6 29/74/6
f 29/81/16 34/82/16 30/60/16
f 40/83/17 43/84/17 39/85/17
f 33/86/18 38/87/18 34/82/18
f 36/88/19 39/85/19 35/68/19
f 34/78/2 40/89/2 36/79/2
f 44/90/20 47/91/20 43/84/20
f 38/92/2 44/93/2 40/89/2
f 37/77/6 43/94/6 41/95/6
f 37/96/21 42/97/21 38/87/21
f 45/98/6 51/99/6 49/100/6
f 42/101/2 48/102/2 44/93/2
f 41/95/6 47/103/6 45/98/6
f 41/104/22 46/105/22 42/97/22
f 52/106/23 55/107/23 51/108/23
f 45/109/24 50/110/24 46/105/24
f 48/111/25 51/108/25 47/91/25
f 46/112/2 52/113/2 48/102/2
f 54/114/2 60/115/2 56/116/2
f 50/117/2 56/116/2 52/113/2
f 49/100/6 55/118/6 53/119/6
f 49/120/26 54/121/26 50/110/26
f 59/1/27 58/2/27 57/3/27
f 53/119/6 59/122/6 57/123/6
f 53/124/28 58/125/28 54/121/28
f 56/126/29 59/127/29 55/107/29
f 9/25/7 17/57/7 18/26/7
f 11/28/2 15/128/2 16/29/2
f 15/31/3 13/129/3 14/32/3
f 10/10/4 12/22/4 16/11/4
f 9/34/5 11/130/5 12/35/5
f 13/37/6 9/131/6 10/38/6
f 20/40/8 24/63/8 23/41/8
f 13/43/6 19/56/6 17/44/6
f 15/46/2 11/132/2 18/47/2
f 15/49/9 20/40/9 19/42/9
f 23/51/6 27/73/6 25/52/6
f 20/48/2 18/47/2 22/54/2
f 19/56/6 23/51/6 21/53/6
f 17/57/10 21/62/10 22/58/10
f 25/59/11 29/81/11 30/60/11
f 21/62/12 25/59/12 26/61/12
f 24/63/13 28/70/13 27/64/13
f 24/55/2 22/54/2 26/65/2
f 32/67/14 36/88/14 35/68/14
f 28/70/15 32/67/15 31/69/15
f 28/66/2 26/65/2 30/71/2
f 27/73/6 31/80/6 29/74/6
f 33/75/6 35/133/6 39/76/6
f 32/72/2 30/71/2 34/78/2
f 31/80/6 35/133/6 33/75/6
f 29/81/16 33/86/16 34/82/16
f 40/83/17 44/90/17 43/84/17
f 33/86/18 37/96/18 38/87/18
f 36/88/19 40/83/19 39/85/19
f 34/78/2 38/92/2 40/89/2
f 44/90/20 48/111/20 47/91/20
f 38/92/2 42/101/2 44/93/2
f 37/77/6 39/76/6 43/94/6
f 37/96/21 41/104/21 42/97/21
f 45/98/6 47/103/6 51/99/6
f 42/101/2 46/112/2 48/102/2
f 41/95/6 43/94/6 47/103/6
f 41/104/22 45/109/22 46/105/22
f 52/106/23 56/126/23 55/107/23
f 45/109/24 49/120/24 50/110/24
f 48/111/25 52/106/25 51/108/25
f 46/112/2 50/117/2 52/113/2
f 54/114/2 58/134/2 60/115/2
f 50/117/2 54/114/2 56/116/2
f 49/100/6 51/99/6 55/118/6
f 49/120/26 53/124/26 54/121/26
f 59/1/27 60/19/27 58/2/27
f 53/119/6 55/118/6 59/122/6
f 53/124/28 57/135/28 58/125/28
f 56/126/29 60/136/29 59/127/29
