# Blender 3.6.2
# www.blender.org
mtllib c.mtl
g LowBody.001_Mesh
v -0.398131 -0.112258 -1.613488
v -0.248546 -0.098210 -1.621186
v -0.565924 0.015255 -0.084955
v -0.576524 0.013928 -0.123489
v -0.702840 0.003957 -0.109247
v -0.717074 0.004759 -0.030047
v -0.780788 -0.000006 0.000067
v -0.792958 -0.002409 -0.024495
v -0.559292 -0.083630 -1.517631
v -0.548485 -0.098070 -1.563711
v -0.245997 -0.079391 -1.611371
v 0.006675 -0.063377 -1.615901
v 0.006675 -0.090625 -1.627957
v -0.456535 -0.143235 -1.610729
v -0.498133 -0.094236 -1.565500
v -0.495475 -0.112849 -1.585475
v -0.544924 -0.122235 -1.585247
v -0.709626 -0.020936 -0.652145
v -0.698979 -0.023153 -0.715551
v -0.500327 -0.142049 -1.600446
v -0.505334 -0.082995 -1.518720
v -0.460563 -0.110787 -1.596452
v -0.598650 -0.057692 -1.296505
v -0.728736 -0.019071 -0.584806
v -0.541363 -0.140874 -1.595166
v -0.542063 -0.054805 -1.295517
v -0.660445 -0.016082 -0.650593
v -0.569429 -0.041267 -1.150441
v -0.625509 -0.043463 -1.151227
v -0.780802 -0.009777 -0.229697
v -0.403508 -0.094766 -1.601935
v -0.293120 0.032748 -0.145409
v -0.291780 0.032968 -0.188176
v -0.742189 -0.004694 -0.227226
v -0.635354 -0.001983 -0.646363
v -0.530617 -0.021577 -1.148738
v -0.464596 -0.084513 -1.569649
v -0.470974 -0.069957 -1.518104
v -0.505353 -0.036157 -1.299227
v -0.558376 0.005598 -0.645987
v -0.453602 -0.012267 -1.148028
v -0.388594 -0.068195 -1.569407
v -0.394490 -0.056677 -1.517289
v -0.428506 -0.025299 -1.298335
v -0.303797 0.025143 -0.646381
v -0.297057 0.000450 -1.148432
v -0.250497 -0.055507 -1.570848
v -0.256675 -0.043676 -1.518185
v -0.290947 -0.013217 -1.298820
v 0.006675 0.043359 -0.647228
v 0.006675 0.016061 -1.146317
v 0.006675 -0.045014 -1.582489
v 0.006675 -0.030570 -1.517030
v 0.006675 0.001457 -1.297038
v 0.006675 0.044515 -0.197548
v 0.006675 0.043158 -0.158187
v 0.411480 -0.112258 -1.613488
v 0.261896 -0.098210 -1.621186
v 0.579273 0.015255 -0.084955
v 0.730423 0.004759 -0.030047
v 0.716189 0.003957 -0.109247
v 0.589874 0.013928 -0.123489
v 0.806307 -0.002409 -0.024495
v 0.794138 -0.000006 0.000067
v 0.572642 -0.083630 -1.517631
v 0.561834 -0.098070 -1.563711
v 0.259346 -0.079391 -1.611371
v 0.469885 -0.143235 -1.610729
v 0.511482 -0.094236 -1.565500
v 0.558273 -0.122235 -1.585247
v 0.508825 -0.112849 -1.585475
v 0.712328 -0.023153 -0.715551
v 0.722976 -0.020936 -0.652145
v 0.513676 -0.142049 -1.600446
v 0.518684 -0.082995 -1.518720
v 0.473913 -0.110787 -1.596452
v 0.611999 -0.057692 -1.296505
v 0.742086 -0.019071 -0.584806
v 0.554712 -0.140874 -1.595166
v 0.555412 -0.054805 -1.295517
v 0.673795 -0.016082 -0.650593
v 0.582778 -0.041267 -1.150441
v 0.638858 -0.043463 -1.151227
v 0.794152 -0.009777 -0.229697
v 0.416857 -0.094766 -1.601935
v 0.305130 0.032968 -0.188176
v 0.306469 0.032748 -0.145409
v 0.755538 -0.004694 -0.227226
v 0.648703 -0.001983 -0.646363
v 0.543966 -0.021577 -1.148738
v 0.477945 -0.084513 -1.569649
v 0.484323 -0.069957 -1.518104
v 0.518702 -0.036157 -1.299227
v 0.466951 -0.012267 -1.148028
v 0.571725 0.005598 -0.645987
v 0.401943 -0.068195 -1.569407
v 0.407840 -0.056677 -1.517289
v 0.441855 -0.025299 -1.298335
v 0.310406 0.000450 -1.148432
v 0.317146 0.025143 -0.646381
v 0.263846 -0.055507 -1.570848
v 0.270025 -0.043676 -1.518185
v 0.304296 -0.013217 -1.298820
vn -0.0757 0.9970 -0.0155
vn -0.0946 0.9951 -0.0286
vn -0.0987 0.9947 -0.0271
vn -0.0811 0.6859 -0.7232
vn 0.0012 0.4090 -0.9125
vn -0.0662 0.4689 -0.8808
vn -0.1975 0.8506 -0.4873
vn -0.0869 0.5705 -0.8167
vn -0.0501 0.8625 -0.5035
vn -0.1833 0.9611 -0.2068
vn -0.1538 0.4523 -0.8785
vn -0.2560 0.5121 -0.8199
vn -0.2160 0.3828 -0.8982
vn -0.0115 0.9797 -0.2003
vn -0.2624 0.9530 -0.1512
vn -0.0964 0.9939 -0.0531
vn -0.0879 0.9952 -0.0431
vn -0.2869 0.9537 -0.0898
vn -0.1002 0.4536 -0.8856
vn -0.2463 0.9623 -0.1153
vn -0.0475 0.9928 -0.1102
vn -0.0345 0.9967 -0.0740
vn -0.0981 0.9940 -0.0489
vn -0.0962 0.9936 -0.0596
vn -0.1607 0.5030 -0.8492
vn -0.1957 0.6743 -0.7120
vn -0.0780 0.9951 -0.0607
vn -0.0759 0.9970 -0.0161
vn -0.0507 0.9987 0.0018
vn -0.0534 0.9986 -0.0065
vn -0.1197 0.9920 -0.0407
vn -0.2961 0.9524 -0.0721
vn -0.2046 0.6049 -0.7695
vn -0.2359 0.8242 -0.5149
vn -0.2513 0.9381 -0.2384
vn -0.3014 0.9388 -0.1669
vn -0.2825 0.9521 -0.1173
vn -0.0877 0.9955 -0.0367
vn -0.0996 0.9919 -0.0792
vn -0.1290 0.9725 -0.1938
vn -0.1314 0.8987 -0.4184
vn -0.1120 0.9850 -0.1310
vn -0.0679 0.9971 -0.0329
vn -0.0660 0.9952 -0.0716
vn -0.0707 0.9797 -0.1877
vn -0.0706 0.9259 -0.3711
vn -0.0684 0.9904 -0.1205
vn -0.0000 0.9996 -0.0287
vn -0.0000 0.9351 -0.3545
vn -0.0000 0.6811 -0.7321
vn -0.0000 0.9836 -0.1802
vn -0.0000 0.9927 -0.1203
vn -0.0000 0.9972 -0.0754
vn -0.1111 0.9929 -0.0414
vn 0.0010 0.9995 0.0308
vn -0.0000 0.9999 0.0156
vn 0.0757 0.9970 -0.0155
vn 0.0946 0.9951 -0.0286
vn 0.0757 0.9970 -0.0164
vn 0.0811 0.6859 -0.7232
vn 0.1975 0.8506 -0.4873
vn 0.0885 0.5771 -0.8118
vn 0.2046 0.6049 -0.7696
vn 0.0480 0.8551 -0.5162
vn 0.1833 0.9611 -0.2068
vn 0.0115 0.9797 -0.2003
vn 0.1673 0.4619 -0.8710
vn 0.2560 0.5121 -0.8199
vn 0.2624 0.9530 -0.1512
vn 0.0476 0.9928 -0.1101
vn 0.0964 0.9939 -0.0531
vn 0.2869 0.9538 -0.0898
vn 0.0867 0.9951 -0.0469
vn 0.2463 0.9623 -0.1153
vn 0.0927 0.9950 -0.0369
vn 0.0938 0.9946 -0.0454
vn 0.1618 0.5030 -0.8490
vn 0.1957 0.6743 -0.7120
vn 0.2099 0.3802 -0.9008
vn 0.0777 0.9952 -0.0599
vn 0.0532 0.9986 0.0025
vn 0.1197 0.9920 -0.0407
vn 0.1111 0.9929 -0.0414
vn 0.2961 0.9524 -0.0721
vn 0.2825 0.9521 -0.1173
vn 0.2359 0.8241 -0.5149
vn 0.2513 0.9381 -0.2384
vn 0.3014 0.9388 -0.1669
vn 0.0877 0.9955 -0.0367
vn 0.1314 0.8987 -0.4184
vn 0.1290 0.9725 -0.1938
vn 0.1120 0.9850 -0.1310
vn 0.0996 0.9919 -0.0791
vn 0.0677 0.9972 -0.0326
vn 0.0709 0.9258 -0.3713
vn 0.0703 0.9798 -0.1873
vn 0.0686 0.9903 -0.1207
vn 0.0660 0.9952 -0.0716
vn 0.0533 0.9986 -0.0066
vn 0.0382 0.9967 -0.0722
vn 0.0663 0.4686 -0.8809
vn 0.1002 0.4536 -0.8856
vn 0.0887 0.9945 -0.0551
vt 0.856866 0.910751
vt 0.927490 0.895044
vt 0.936022 0.936350
vt 0.602730 0.023315
vt 0.477350 0.015757
vt 0.604100 0.012403
vt 0.731693 0.032547
vt 0.755354 0.014275
vt 0.757737 0.031560
vt 0.737581 0.059111
vt 0.732637 -0.000068
vt 0.711636 0.013759
vt 0.710205 -0.006458
vt 0.765006 0.057349
vt 0.764062 0.272041
vt 0.863870 0.607811
vt 0.874996 0.642864
vt 0.838582 0.610216
vt 0.753192 0.003135
vt 0.781608 0.348481
vt 0.792504 0.269153
vt 0.810076 0.346316
vt 0.975530 0.937387
vt 0.969310 0.950655
vt 0.678998 0.007756
vt 0.681851 0.018507
vt 0.857045 0.574766
vt 0.861770 0.890293
vt 0.654960 0.978436
vt 0.653803 0.956037
vt 0.966018 0.829511
vt 0.882850 0.613655
vt 0.729740 0.017417
vt 0.713770 0.033950
vt 0.719384 0.062697
vt 0.743298 0.272827
vt 0.759879 0.351838
vt 0.784526 0.616246
vt 0.720540 0.355500
vt 0.680827 0.068501
vt 0.675604 0.040826
vt 0.704337 0.277199
vt 0.652940 0.622317
vt 0.640728 0.360695
vt 0.611298 0.075479
vt 0.606428 0.047790
vt 0.634405 0.282744
vt 0.491752 0.628423
vt 0.478244 0.050474
vt 0.477895 0.030940
vt 0.479477 0.084817
vt 0.482484 0.291757
vt 0.484558 0.369146
vt 0.946009 0.831717
vt 0.499130 0.976738
vt 0.498378 0.955771
vt 0.131594 0.932181
vt 0.059983 0.920414
vt 0.125575 0.911775
vt 0.352775 0.030611
vt 0.224407 0.047782
vt 0.199826 0.030614
vt 0.225622 0.032532
vt 0.198690 0.048032
vt 0.220062 0.074010
vt 0.192585 0.074327
vt 0.221818 0.014939
vt 0.243415 0.027515
vt 0.200075 0.288338
vt 0.171842 0.287235
vt 0.119299 0.629863
vt 0.144691 0.630349
vt 0.110352 0.665315
vt 0.187002 0.365938
vt 0.054072 0.961905
vt 0.014733 0.965568
vt 0.275546 0.019419
vt 0.273485 0.030719
vt 0.243744 0.007230
vt 0.124075 0.596016
vt 0.343051 0.987718
vt 0.017891 0.857212
vt 0.038016 0.858259
vt 0.159237 0.633056
vt 0.208926 0.368003
vt 0.242382 0.047825
vt 0.238480 0.076571
vt 0.221217 0.288261
vt 0.199071 0.633357
vt 0.280964 0.052518
vt 0.277375 0.080165
vt 0.260399 0.290035
vt 0.248447 0.369402
vt 0.330826 0.631985
vt 0.350490 0.055314
vt 0.347254 0.082948
vt 0.330591 0.291719
vt 0.328467 0.369991
vt 0.343302 0.965265
vt 0.158431 0.365210
vt 0.350978 0.019820
vt 0.201184 0.019340
vt 0.021535 0.978342
s 1
g off
g LowBody.001_Body
usemtl Body
f 3/1/1 5/2/2 6/3/3
f 11/4/4 13/5/5 2/6/6
f 15/7/7 17/8/8 10/9/9
f 10/9/9 21/10/10 15/7/7
f 20/11/11 22/12/12 14/13/13
f 9/14/14 26/15/15 21/10/10
f 18/16/16 24/17/17 27/18/18
f 17/8/8 20/11/11 25/19/19
f 28/20/20 23/21/21 29/22/22
f 6/3/3 8/23/23 7/24/24
f 11/4/4 1/25/25 31/26/26
f 1/25/25 22/12/12 31/26/26
f 19/27/27 18/16/16 27/18/18
f 4/28/28 32/29/29 33/30/30
f 5/2/2 30/31/31 8/23/23
f 35/32/32 28/20/20 27/18/18
f 16/33/33 37/34/34 22/12/12
f 15/7/7 38/35/35 37/34/34
f 21/10/10 39/36/36 38/35/35
f 26/15/15 36/37/37 39/36/36
f 36/37/37 40/38/38 41/39/39
f 37/34/34 31/26/26 22/12/12
f 37/34/34 43/40/40 42/41/41
f 38/35/35 44/42/42 43/40/40
f 39/36/36 41/39/39 44/42/42
f 41/39/39 45/43/43 46/44/44
f 42/41/41 11/4/4 31/26/26
f 42/41/41 48/45/45 47/46/46
f 43/40/40 49/47/47 48/45/45
f 44/42/42 46/44/44 49/47/47
f 50/48/48 46/44/44 45/43/43
f 11/4/4 52/49/49 12/50/50
f 47/46/46 53/51/51 52/49/49
f 48/45/45 54/52/52 53/51/51
f 49/47/47 51/53/53 54/52/52
f 24/17/17 34/54/54 27/18/18
f 34/54/54 35/32/32 27/18/18
f 35/32/32 4/28/28 40/38/38
f 40/38/38 33/30/30 45/43/43
f 33/30/30 50/48/48 45/43/43
f 28/20/20 19/27/27 27/18/18
f 33/30/30 56/55/55 55/56/56
f 59/57/57 61/58/58 62/59/59
f 67/60/60 13/5/5 12/50/50
f 69/61/61 70/62/62 71/63/63
f 66/64/64 75/65/65 65/66/66
f 74/67/67 76/68/68 71/63/63
f 65/66/66 80/69/69 77/70/70
f 73/71/71 81/72/72 78/73/73
f 70/62/62 74/67/67 71/63/63
f 82/74/74 77/70/70 80/69/69
f 60/75/75 63/76/76 61/58/58
f 57/77/77 67/60/60 85/78/78
f 57/77/77 76/68/68 68/79/79
f 72/80/80 81/72/72 73/71/71
f 62/59/59 87/81/81 59/57/57
f 61/58/58 84/82/82 88/83/83
f 89/84/84 82/74/74 90/85/85
f 71/63/63 91/86/86 69/61/61
f 69/61/61 92/87/87 75/65/65
f 75/65/65 93/88/88 80/69/69
f 80/69/69 90/85/85 82/74/74
f 90/85/85 95/89/89 89/84/84
f 91/86/86 85/78/78 96/90/90
f 91/86/86 97/91/91 92/87/87
f 92/87/87 98/92/92 93/88/88
f 93/88/88 94/93/93 90/85/85
f 94/93/93 100/94/94 95/89/89
f 96/90/90 67/60/60 101/95/95
f 96/90/90 102/96/96 97/91/91
f 97/91/91 103/97/97 98/92/92
f 98/92/92 99/98/98 94/93/93
f 99/98/98 50/48/48 100/94/94
f 67/60/60 52/49/49 101/95/95
f 101/95/95 53/51/51 102/96/96
f 102/96/96 54/52/52 103/97/97
f 103/97/97 51/53/53 99/98/98
f 78/73/73 88/83/83 84/82/82
f 88/83/83 89/84/84 61/58/58
f 89/84/84 62/59/59 61/58/58
f 95/89/89 86/99/99 62/59/59
f 50/48/48 86/99/99 100/94/94
f 82/74/74 72/80/80 83/100/100
f 56/55/55 86/99/99 55/56/56
f 3/1/1 4/28/28 5/2/2
f 11/4/4 12/50/50 13/5/5
f 15/7/7 16/33/33 17/8/8
f 10/9/9 9/14/14 21/10/10
f 20/11/11 16/33/33 22/12/12
f 9/14/14 23/21/21 26/15/15
f 17/8/8 16/33/33 20/11/11
f 28/20/20 26/15/15 23/21/21
f 6/3/3 5/2/2 8/23/23
f 11/4/4 2/6/6 1/25/25
f 1/25/25 14/13/13 22/12/12
f 4/28/28 3/1/1 32/29/29
f 5/2/2 34/54/54 30/31/31
f 35/32/32 36/37/37 28/20/20
f 16/33/33 15/7/7 37/34/34
f 15/7/7 21/10/10 38/35/35
f 21/10/10 26/15/15 39/36/36
f 26/15/15 28/20/20 36/37/37
f 36/37/37 35/32/32 40/38/38
f 37/34/34 42/41/41 31/26/26
f 37/34/34 38/35/35 43/40/40
f 38/35/35 39/36/36 44/42/42
f 39/36/36 36/37/37 41/39/39
f 41/39/39 40/38/38 45/43/43
f 42/41/41 47/46/46 11/4/4
f 42/41/41 43/40/40 48/45/45
f 43/40/40 44/42/42 49/47/47
f 44/42/42 41/39/39 46/44/44
f 50/48/48 51/53/53 46/44/44
f 11/4/4 47/46/46 52/49/49
f 47/46/46 48/45/45 53/51/51
f 48/45/45 49/47/47 54/52/52
f 49/47/47 46/44/44 51/53/53
f 24/17/17 30/31/31 34/54/54
f 34/54/54 5/2/2 35/32/32
f 35/32/32 5/2/2 4/28/28
f 40/38/38 4/28/28 33/30/30
f 33/30/30 55/56/56 50/48/48
f 28/20/20 29/22/22 19/27/27
f 33/30/30 32/29/29 56/55/55
f 59/57/57 60/75/75 61/58/58
f 67/60/60 58/101/101 13/5/5
f 69/61/61 66/64/64 70/62/62
f 66/64/64 69/61/61 75/65/65
f 74/67/67 68/79/79 76/68/68
f 65/66/66 75/65/65 80/69/69
f 70/62/62 79/102/102 74/67/67
f 82/74/74 83/100/100 77/70/70
f 60/75/75 64/103/103 63/76/76
f 57/77/77 58/101/101 67/60/60
f 57/77/77 85/78/78 76/68/68
f 62/59/59 86/99/99 87/81/81
f 61/58/58 63/76/76 84/82/82
f 89/84/84 81/72/72 82/74/74
f 71/63/63 76/68/68 91/86/86
f 69/61/61 91/86/86 92/87/87
f 75/65/65 92/87/87 93/88/88
f 80/69/69 93/88/88 90/85/85
f 90/85/85 94/93/93 95/89/89
f 91/86/86 76/68/68 85/78/78
f 91/86/86 96/90/90 97/91/91
f 92/87/87 97/91/91 98/92/92
f 93/88/88 98/92/92 94/93/93
f 94/93/93 99/98/98 100/94/94
f 96/90/90 85/78/78 67/60/60
f 96/90/90 101/95/95 102/96/96
f 97/91/91 102/96/96 103/97/97
f 98/92/92 103/97/97 99/98/98
f 99/98/98 51/53/53 50/48/48
f 67/60/60 12/50/50 52/49/49
f 101/95/95 52/49/49 53/51/51
f 102/96/96 53/51/51 54/52/52
f 103/97/97 54/52/52 51/53/53
f 78/73/73 81/72/72 88/83/83
f 88/83/83 81/72/72 89/84/84
f 89/84/84 95/89/89 62/59/59
f 95/89/89 100/94/94 86/99/99
f 50/48/48 55/56/56 86/99/99
f 82/74/74 81/72/72 72/80/80
f 56/55/55 87/81/81 86/99/99
