# Blender 3.6.2
# www.blender.org
mtllib cofre1.mtl
g LowBody.001_Mesh
v -1.611824 -0.112258 0.404814
v -1.620142 -0.098210 0.255263
v -0.082609 0.015255 0.566271
v -0.121099 0.013928 0.577031
v -0.106333 0.003957 0.703287
v -0.027075 0.004759 0.717192
v 0.003303 -0.000006 0.780781
v -0.021209 -0.002409 0.793053
v -1.515300 -0.083630 0.565577
v -1.561424 -0.098070 0.554961
v -1.610338 -0.079391 0.252673
v -1.615915 -0.063377 0.000022
v -1.627971 -0.090625 0.000072
v -1.608823 -0.143235 0.463207
v -1.563422 -0.094236 0.504617
v -1.583408 -0.112849 0.502041
v -1.582975 -0.122235 0.551489
v -0.649198 -0.020936 0.712323
v -0.712648 -0.023153 0.701939
v -1.598359 -0.142049 0.506956
v -1.516613 -0.082995 0.511624
v -1.594530 -0.110787 0.467175
v -1.294013 -0.057692 0.604018
v -0.581781 -0.019071 0.731153
v -1.592909 -0.140874 0.547969
v -1.293259 -0.054805 0.547427
v -0.647850 -0.016082 0.663136
v -1.148071 -0.041267 0.574192
v -1.148625 -0.043463 0.630275
v -0.226459 -0.009777 0.781747
v -1.600249 -0.094766 0.410144
v -0.144193 0.032748 0.293720
v -0.186965 0.032968 0.292557
v -0.224148 -0.004694 0.743124
v -0.643724 -0.001983 0.638027
v -1.146529 -0.021577 0.535373
v -1.567710 -0.084513 0.471097
v -1.516139 -0.069957 0.477261
v -1.297121 -0.036157 0.510733
v -0.643667 0.005598 0.561048
v -1.146138 -0.012267 0.458356
v -1.567783 -0.068195 0.395095
v -1.515641 -0.056677 0.400775
v -1.296548 -0.025299 0.433883
v -0.645116 0.025143 0.306473
v -1.147191 0.000450 0.301814
v -1.569796 -0.055507 0.257005
v -1.517108 -0.043676 0.262965
v -1.297603 -0.013217 0.296327
v -0.647250 0.043359 -0.003993
v -1.146335 0.016061 -0.001924
v -1.582503 -0.045014 -0.000117
v -1.517045 -0.030570 -0.000388
v -1.297055 0.001457 -0.001300
v -0.197574 0.044515 -0.005856
v -0.158213 0.043158 -0.006019
v -1.615179 -0.112258 -0.404790
v -1.622257 -0.098210 -0.255175
v -0.087355 0.015255 -0.578916
v -0.033074 0.004759 -0.730292
v -0.112214 0.003957 -0.715730
v -0.125933 0.013928 -0.589357
v -0.027836 -0.002409 -0.806199
v -0.003224 -0.000006 -0.794132
v -1.519991 -0.083630 -0.566348
v -1.566026 -0.098070 -0.555349
v -1.612432 -0.079391 -0.252666
v -1.612663 -0.143235 -0.463206
v -1.567606 -0.094236 -0.504990
v -1.587547 -0.122235 -0.551698
v -1.587570 -0.112849 -0.502250
v -0.718497 -0.023153 -0.709356
v -0.655136 -0.020936 -0.720267
v -1.602561 -0.142049 -0.507039
v -1.520857 -0.082995 -0.512385
v -1.598402 -0.110787 -0.467293
v -1.299030 -0.057692 -0.606621
v -0.587876 -0.019071 -0.739656
v -1.597451 -0.140874 -0.548096
v -1.297808 -0.054805 -0.550038
v -0.653380 -0.016082 -0.671093
v -1.152846 -0.041267 -0.578005
v -1.153865 -0.043463 -0.634081
v -0.232986 -0.009777 -0.793193
v -1.603649 -0.094766 -0.410214
v -0.189439 0.032968 -0.304348
v -0.146678 0.032748 -0.305864
v -0.230355 -0.004694 -0.754590
v -0.649046 -0.001983 -0.646019
v -1.150982 -0.021577 -0.539201
v -1.571616 -0.084513 -0.471436
v -1.520098 -0.069957 -0.478027
v -1.301365 -0.036157 -0.513313
v -1.149953 -0.012267 -0.462189
v -0.648351 0.005598 -0.569043
v -1.571059 -0.068195 -0.395435
v -1.518966 -0.056677 -0.401548
v -1.300155 -0.025299 -0.436470
v -1.149709 0.000450 -0.305644
v -0.647690 0.025143 -0.314464
v -1.571928 -0.055507 -0.257334
v -1.519291 -0.043676 -0.263731
v -1.300070 -0.013217 -0.298911
vn -0.0152 0.9970 0.0758
vn -0.0282 0.9951 0.0947
vn -0.0267 0.9947 0.0988
vn -0.7228 0.6859 0.0841
vn -0.9125 0.4090 0.0026
vn -0.8805 0.4689 0.0699
vn -0.4865 0.8506 0.1995
vn -0.8163 0.5705 0.0903
vn -0.5033 0.8625 0.0522
vn -0.2060 0.9611 0.1842
vn -0.8779 0.4523 0.1574
vn -0.8188 0.5121 0.2594
vn -0.8973 0.3828 0.2197
vn -0.2003 0.9797 0.0123
vn -0.1501 0.9530 0.2630
vn -0.0527 0.9939 0.0966
vn -0.0428 0.9952 0.0881
vn -0.0886 0.9537 0.2873
vn -0.8852 0.4536 0.1038
vn -0.1143 0.9623 0.2467
vn -0.1100 0.9928 0.0480
vn -0.0739 0.9967 0.0348
vn -0.0485 0.9940 0.0983
vn -0.0592 0.9936 0.0964
vn -0.8485 0.5030 0.1642
vn -0.7112 0.6743 0.1987
vn -0.0604 0.9951 0.0782
vn -0.0158 0.9970 0.0760
vn 0.0020 0.9987 0.0507
vn -0.0062 0.9986 0.0534
vn -0.0402 0.9920 0.1199
vn -0.0709 0.9524 0.2964
vn -0.7687 0.6049 0.2078
vn -0.5139 0.8242 0.2380
vn -0.2374 0.9381 0.2523
vn -0.1656 0.9388 0.3021
vn -0.1161 0.9521 0.2829
vn -0.0363 0.9955 0.0879
vn -0.0788 0.9919 0.0999
vn -0.1933 0.9725 0.1298
vn -0.4178 0.8987 0.1332
vn -0.1305 0.9850 0.1125
vn -0.0326 0.9971 0.0681
vn -0.0713 0.9952 0.0663
vn -0.1874 0.9797 0.0714
vn -0.3708 0.9259 0.0722
vn -0.1202 0.9904 0.0689
vn -0.0287 0.9996 0.0001
vn -0.3545 0.9351 0.0015
vn -0.7321 0.6811 0.0030
vn -0.1802 0.9836 0.0007
vn -0.1203 0.9927 0.0005
vn -0.0754 0.9972 0.0003
vn -0.0409 0.9929 0.1113
vn 0.0307 0.9995 -0.0012
vn 0.0156 0.9999 -0.0001
vn -0.0158 0.9970 -0.0756
vn -0.0290 0.9951 -0.0945
vn -0.0167 0.9970 -0.0756
vn -0.7235 0.6859 -0.0781
vn -0.4881 0.8506 -0.1955
vn -0.8122 0.5771 -0.0851
vn -0.7704 0.6049 -0.2014
vn -0.5164 0.8551 -0.0459
vn -0.2076 0.9611 -0.1824
vn -0.2003 0.9797 -0.0107
vn -0.8717 0.4619 -0.1637
vn -0.8209 0.5121 -0.2526
vn -0.1523 0.9530 -0.2618
vn -0.1103 0.9928 -0.0471
vn -0.0535 0.9939 -0.0962
vn -0.0909 0.9538 -0.2865
vn -0.0472 0.9951 -0.0865
vn -0.1164 0.9623 -0.2458
vn -0.0373 0.9950 -0.0925
vn -0.0458 0.9946 -0.0936
vn -0.8497 0.5030 -0.1583
vn -0.7128 0.6743 -0.1928
vn -0.9016 0.3802 -0.2062
vn -0.0602 0.9952 -0.0775
vn 0.0023 0.9986 -0.0532
vn -0.0412 0.9920 -0.1196
vn -0.0419 0.9929 -0.1109
vn -0.0733 0.9524 -0.2958
vn -0.1185 0.9521 -0.2820
vn -0.5159 0.8241 -0.2338
vn -0.2394 0.9381 -0.2503
vn -0.1681 0.9388 -0.3007
vn -0.0371 0.9955 -0.0876
vn -0.4189 0.8987 -0.1297
vn -0.1944 0.9725 -0.1282
vn -0.1315 0.9850 -0.1115
vn -0.0795 0.9919 -0.0992
vn -0.0329 0.9972 -0.0676
vn -0.3716 0.9258 -0.0694
vn -0.1875 0.9798 -0.0695
vn -0.1210 0.9903 -0.0681
vn -0.0719 0.9952 -0.0657
vn -0.0068 0.9986 -0.0533
vn -0.0724 0.9967 -0.0379
vn -0.8812 0.4686 -0.0627
vn -0.8860 0.4536 -0.0965
vn -0.0555 0.9945 -0.0885
vt 0.873671 0.925065
vt 0.954913 0.913301
vt 0.963268 0.949511
vt 0.637927 0.091425
vt 0.494895 0.216752
vt 0.639861 0.135145
vt 0.778361 0.087501
vt 0.806018 0.083403
vt 0.808157 0.094037
vt 0.784193 0.093751
vt 0.780540 0.079886
vt 0.756073 0.082964
vt 0.755120 0.078229
vt 0.843498 0.205532
vt 0.838774 0.304555
vt 0.919801 0.635634
vt 0.931333 0.666469
vt 0.890820 0.637043
vt 0.803923 0.080784
vt 0.856246 0.371613
vt 0.871375 0.302812
vt 0.888853 0.379801
vt 1.008384 0.951487
vt 1.000828 0.962874
vt 0.718976 0.081324
vt 0.721873 0.083857
vt 0.913116 0.606666
vt 0.879967 0.907380
vt 0.671708 0.984410
vt 0.671142 0.964868
vt 1.001155 0.857266
vt 0.874332 0.639650
vt 0.776639 0.083951
vt 0.757831 0.087698
vt 0.763276 0.094457
vt 0.815017 0.304677
vt 0.831300 0.373947
vt 0.828840 0.631527
vt 0.786218 0.376069
vt 0.719015 0.095532
vt 0.713981 0.089027
vt 0.770344 0.307427
vt 0.678256 0.633243
vt 0.673129 0.161481
vt 0.645959 0.086139
vt 0.641327 0.051133
vt 0.668534 0.466609
vt 0.493840 0.634187
vt 0.494745 0.034662
vt 0.495006 0.030095
vt 0.494995 0.036119
vt 0.494611 0.152211
vt 0.494369 0.175799
vt 0.978214 0.858645
vt 0.493680 0.978701
vt 0.493527 0.960418
vt 0.117320 0.947580
vt 0.035879 0.935387
vt 0.111130 0.929643
vt 0.352027 0.084350
vt 0.220438 0.104522
vt 0.192926 0.100331
vt 0.222341 0.100967
vt 0.191039 0.104393
vt 0.214588 0.110620
vt 0.183175 0.110494
vt 0.218588 0.096828
vt 0.242844 0.099924
vt 0.137879 0.303443
vt 0.105650 0.301716
vt 0.068143 0.634633
vt 0.097144 0.626444
vt 0.056721 0.665270
vt 0.120320 0.370679
vt 0.027723 0.971366
vt -0.017358 0.973488
vt 0.279838 0.172805
vt 0.277102 0.100892
vt 0.243905 0.095187
vt 0.074743 0.595980
vt 0.314938 0.984029
vt -0.010092 0.879194
vt 0.012872 0.880652
vt 0.113677 0.629197
vt 0.145305 0.373073
vt 0.240978 0.104663
vt 0.235549 0.111352
vt 0.162043 0.303950
vt 0.159190 0.630540
vt 0.284912 0.163041
vt 0.279878 0.112475
vt 0.206761 0.306558
vt 0.190424 0.375365
vt 0.309809 0.632922
vt 0.348582 0.046259
vt 0.343950 0.083386
vt 0.321025 0.466181
vt 0.315957 0.175516
vt 0.315983 0.964479
vt 0.087692 0.369270
vt 0.350337 0.195515
vt 0.194858 0.097707
vt -0.010016 0.984799
s 1
g off
g LowBody.001_Body.001
usemtl Body.001
f 3/1/1 5/2/2 6/3/3
f 11/4/4 13/5/5 2/6/6
f 15/7/7 17/8/8 10/9/9
f 10/9/9 21/10/10 15/7/7
f 20/11/11 22/12/12 14/13/13
f 9/14/14 26/15/15 21/10/10
f 18/16/16 24/17/17 27/18/18
f 17/8/8 20/11/11 25/19/19
f 28/20/20 23/21/21 29/22/22
f 6/3/3 8/23/23 7/24/24
f 11/4/4 1/25/25 31/26/26
f 1/25/25 22/12/12 31/26/26
f 19/27/27 18/16/16 27/18/18
f 4/28/28 32/29/29 33/30/30
f 5/2/2 30/31/31 8/23/23
f 35/32/32 28/20/20 27/18/18
f 16/33/33 37/34/34 22/12/12
f 15/7/7 38/35/35 37/34/34
f 21/10/10 39/36/36 38/35/35
f 26/15/15 36/37/37 39/36/36
f 36/37/37 40/38/38 41/39/39
f 37/34/34 31/26/26 22/12/12
f 37/34/34 43/40/40 42/41/41
f 38/35/35 44/42/42 43/40/40
f 39/36/36 41/39/39 44/42/42
f 41/39/39 45/43/43 46/44/44
f 42/41/41 11/4/4 31/26/26
f 42/41/41 48/45/45 47/46/46
f 43/40/40 49/47/47 48/45/45
f 44/42/42 46/44/44 49/47/47
f 50/48/48 46/44/44 45/43/43
f 11/4/4 52/49/49 12/50/50
f 47/46/46 53/51/51 52/49/49
f 48/45/45 54/52/52 53/51/51
f 49/47/47 51/53/53 54/52/52
f 24/17/17 34/54/54 27/18/18
f 34/54/54 35/32/32 27/18/18
f 35/32/32 4/28/28 40/38/38
f 40/38/38 33/30/30 45/43/43
f 33/30/30 50/48/48 45/43/43
f 28/20/20 19/27/27 27/18/18
f 33/30/30 56/55/55 55/56/56
f 59/57/57 61/58/58 62/59/59
f 67/60/60 13/5/5 12/50/50
f 69/61/61 70/62/62 71/63/63
f 66/64/64 75/65/65 65/66/66
f 74/67/67 76/68/68 71/63/63
f 65/66/66 80/69/69 77/70/70
f 73/71/71 81/72/72 78/73/73
f 70/62/62 74/67/67 71/63/63
f 82/74/74 77/70/70 80/69/69
f 60/75/75 63/76/76 61/58/58
f 57/77/77 67/60/60 85/78/78
f 57/77/77 76/68/68 68/79/79
f 72/80/80 81/72/72 73/71/71
f 62/59/59 87/81/81 59/57/57
f 61/58/58 84/82/82 88/83/83
f 89/84/84 82/74/74 90/85/85
f 71/63/63 91/86/86 69/61/61
f 69/61/61 92/87/87 75/65/65
f 75/65/65 93/88/88 80/69/69
f 80/69/69 90/85/85 82/74/74
f 90/85/85 95/89/89 89/84/84
f 91/86/86 85/78/78 96/90/90
f 91/86/86 97/91/91 92/87/87
f 92/87/87 98/92/92 93/88/88
f 93/88/88 94/93/93 90/85/85
f 94/93/93 100/94/94 95/89/89
f 96/90/90 67/60/60 101/95/95
f 96/90/90 102/96/96 97/91/91
f 97/91/91 103/97/97 98/92/92
f 98/92/92 99/98/98 94/93/93
f 99/98/98 50/48/48 100/94/94
f 67/60/60 52/49/49 101/95/95
f 101/95/95 53/51/51 102/96/96
f 102/96/96 54/52/52 103/97/97
f 103/97/97 51/53/53 99/98/98
f 78/73/73 88/83/83 84/82/82
f 88/83/83 89/84/84 61/58/58
f 89/84/84 62/59/59 61/58/58
f 95/89/89 86/99/99 62/59/59
f 50/48/48 86/99/99 100/94/94
f 82/74/74 72/80/80 83/100/100
f 56/55/55 86/99/99 55/56/56
f 3/1/1 4/28/28 5/2/2
f 11/4/4 12/50/50 13/5/5
f 15/7/7 16/33/33 17/8/8
f 10/9/9 9/14/14 21/10/10
f 20/11/11 16/33/33 22/12/12
f 9/14/14 23/21/21 26/15/15
f 17/8/8 16/33/33 20/11/11
f 28/20/20 26/15/15 23/21/21
f 6/3/3 5/2/2 8/23/23
f 11/4/4 2/6/6 1/25/25
f 1/25/25 14/13/13 22/12/12
f 4/28/28 3/1/1 32/29/29
f 5/2/2 34/54/54 30/31/31
f 35/32/32 36/37/37 28/20/20
f 16/33/33 15/7/7 37/34/34
f 15/7/7 21/10/10 38/35/35
f 21/10/10 26/15/15 39/36/36
f 26/15/15 28/20/20 36/37/37
f 36/37/37 35/32/32 40/38/38
f 37/34/34 42/41/41 31/26/26
f 37/34/34 38/35/35 43/40/40
f 38/35/35 39/36/36 44/42/42
f 39/36/36 36/37/37 41/39/39
f 41/39/39 40/38/38 45/43/43
f 42/41/41 47/46/46 11/4/4
f 42/41/41 43/40/40 48/45/45
f 43/40/40 44/42/42 49/47/47
f 44/42/42 41/39/39 46/44/44
f 50/48/48 51/53/53 46/44/44
f 11/4/4 47/46/46 52/49/49
f 47/46/46 48/45/45 53/51/51
f 48/45/45 49/47/47 54/52/52
f 49/47/47 46/44/44 51/53/53
f 24/17/17 30/31/31 34/54/54
f 34/54/54 5/2/2 35/32/32
f 35/32/32 5/2/2 4/28/28
f 40/38/38 4/28/28 33/30/30
f 33/30/30 55/56/56 50/48/48
f 28/20/20 29/22/22 19/27/27
f 33/30/30 32/29/29 56/55/55
f 59/57/57 60/75/75 61/58/58
f 67/60/60 58/101/101 13/5/5
f 69/61/61 66/64/64 70/62/62
f 66/64/64 69/61/61 75/65/65
f 74/67/67 68/79/79 76/68/68
f 65/66/66 75/65/65 80/69/69
f 70/62/62 79/102/102 74/67/67
f 82/74/74 83/100/100 77/70/70
f 60/75/75 64/103/103 63/76/76
f 57/77/77 58/101/101 67/60/60
f 57/77/77 85/78/78 76/68/68
f 62/59/59 86/99/99 87/81/81
f 61/58/58 63/76/76 84/82/82
f 89/84/84 81/72/72 82/74/74
f 71/63/63 76/68/68 91/86/86
f 69/61/61 91/86/86 92/87/87
f 75/65/65 92/87/87 93/88/88
f 80/69/69 93/88/88 90/85/85
f 90/85/85 94/93/93 95/89/89
f 91/86/86 76/68/68 85/78/78
f 91/86/86 96/90/90 97/91/91
f 92/87/87 97/91/91 98/92/92
f 93/88/88 98/92/92 94/93/93
f 94/93/93 99/98/98 100/94/94
f 96/90/90 85/78/78 67/60/60
f 96/90/90 101/95/95 102/96/96
f 97/91/91 102/96/96 103/97/97
f 98/92/92 103/97/97 99/98/98
f 99/98/98 51/53/53 50/48/48
f 67/60/60 12/50/50 52/49/49
f 101/95/95 52/49/49 53/51/51
f 102/96/96 53/51/51 54/52/52
f 103/97/97 54/52/52 51/53/53
f 78/73/73 81/72/72 88/83/83
f 88/83/83 81/72/72 89/84/84
f 89/84/84 95/89/89 62/59/59
f 95/89/89 100/94/94 86/99/99
f 50/48/48 55/56/56 86/99/99
f 82/74/74 81/72/72 72/80/80
f 56/55/55 87/81/81 86/99/99
