# Blender 3.6.2
# www.blender.org
mtllib Lamp_Text.mtl
g rv_lamp_post_2_Mesh
v -0.074763 3.994230 0.046153
v -0.043164 3.994230 0.079940
v 0.000000 3.994230 0.092307
v 0.043164 3.994230 0.079940
v 0.074763 3.994230 0.046153
v 0.086329 3.994230 0.000000
v 0.074763 3.994230 -0.046153
v 0.043164 3.994230 -0.079940
v 0.000000 3.994230 -0.092306
v -0.043164 3.994230 -0.079940
v -0.074763 3.994230 -0.046153
v -0.086329 3.994230 0.000000
v -0.144431 4.027605 0.089162
v -0.083388 4.027605 0.154432
v 0.000000 4.027605 0.178323
v 0.083388 4.027605 0.154432
v 0.144431 4.027605 0.089162
v 0.166775 4.027605 0.000000
v 0.144431 4.027605 -0.089161
v 0.083388 4.027605 -0.154432
v 0.000000 4.027605 -0.178322
v -0.083388 4.027605 -0.154432
v -0.144431 4.027605 -0.089161
v -0.166775 4.027605 0.000000
v -0.204257 4.080697 0.126093
v -0.117928 4.080697 0.218400
v 0.000000 4.080697 0.252186
v 0.117928 4.080697 0.218400
v 0.204257 4.080697 0.126093
v 0.235855 4.080697 0.000000
v 0.204257 4.080697 -0.126093
v 0.117928 4.080697 -0.218399
v 0.000000 4.080697 -0.252186
v -0.117928 4.080697 -0.218399
v -0.204257 4.080697 -0.126093
v -0.235855 4.080697 0.000000
v -0.250162 4.149886 0.154432
v -0.144431 4.149886 0.267484
v 0.000000 4.149886 0.308864
v 0.144431 4.149886 0.267484
v 0.250162 4.149886 0.154432
v 0.288863 4.149886 0.000000
v 0.250162 4.149886 -0.154432
v 0.144431 4.149886 -0.267483
v 0.000000 4.149886 -0.308863
v -0.144431 4.149886 -0.267483
v -0.250162 4.149886 -0.154432
v -0.288863 4.149886 0.000000
v -0.279020 4.230461 0.172247
v -0.161092 4.230461 0.298340
v 0.000000 4.230461 0.344493
v 0.161092 4.230461 0.298340
v 0.279020 4.230461 0.172247
v 0.322184 4.230461 0.000000
v 0.279020 4.230461 -0.172246
v 0.161092 4.230461 -0.298339
v 0.000000 4.230461 -0.344492
v -0.161092 4.230461 -0.298339
v -0.279020 4.230461 -0.172246
v -0.322184 4.230461 0.000000
v -0.288863 4.316926 0.178323
v -0.166775 4.316926 0.308864
v 0.000000 4.316926 0.356645
v 0.166775 4.316926 0.308864
v 0.288863 4.316926 0.178323
v 0.333550 4.316926 0.000000
v 0.288863 4.316926 -0.178322
v 0.166775 4.316926 -0.308863
v 0.000000 4.316926 -0.356645
v -0.166775 4.316926 -0.308863
v -0.288863 4.316926 -0.178322
v -0.333550 4.316926 0.000000
v -0.279020 4.403393 0.172247
v -0.161092 4.403393 0.298340
v 0.000000 4.403393 0.344493
v 0.161092 4.403393 0.298340
v 0.279020 4.403393 0.172247
v 0.322184 4.403393 0.000000
v 0.279020 4.403393 -0.172246
v 0.161092 4.403393 -0.298339
v 0.000000 4.403393 -0.344492
v -0.161092 4.403393 -0.298339
v -0.279020 4.403393 -0.172246
v -0.322184 4.403393 0.000000
v -0.250162 4.483967 0.154432
v -0.144431 4.483967 0.267484
v 0.000000 4.483967 0.308864
v 0.144431 4.483967 0.267484
v 0.250162 4.483967 0.154432
v 0.288863 4.483967 0.000000
v 0.250162 4.483967 -0.154431
v 0.144431 4.483967 -0.267483
v 0.000000 4.483967 -0.308863
v -0.144431 4.483967 -0.267483
v -0.250162 4.483967 -0.154431
v -0.288863 4.483967 0.000000
v -0.204257 4.553157 0.126093
v -0.117928 4.553157 0.218400
v 0.000000 4.553157 0.252186
v 0.117928 4.553157 0.218400
v 0.204257 4.553157 0.126093
v 0.235855 4.553157 0.000000
v 0.204257 4.553157 -0.126093
v 0.117928 4.553157 -0.218399
v 0.000000 4.553157 -0.252186
v -0.117928 4.553157 -0.218399
v -0.204257 4.553157 -0.126093
v -0.235855 4.553157 0.000000
v -0.144431 4.606249 0.089162
v -0.083388 4.606249 0.154432
v 0.000000 4.606249 0.178323
v 0.083388 4.606249 0.154432
v 0.144431 4.606249 0.089162
v 0.166775 4.606249 0.000000
v 0.144431 4.606249 -0.089161
v 0.083388 4.606249 -0.154431
v 0.000000 4.606249 -0.178322
v -0.083388 4.606249 -0.154431
v -0.144431 4.606249 -0.089161
v -0.166775 4.606249 0.000000
v -0.074763 4.639624 0.046153
v -0.043164 4.639624 0.079940
v 0.000000 4.639624 0.092307
v 0.043164 4.639624 0.079940
v 0.074763 4.639624 0.046153
v 0.086329 4.639624 0.000000
v 0.074763 4.639624 -0.046153
v 0.043164 4.639624 -0.079939
v 0.000000 4.639624 -0.092306
v -0.043164 4.639624 -0.079939
v -0.074763 4.639624 -0.046153
v -0.086329 4.639624 0.000000
v 0.000000 3.982846 0.000000
v 0.000000 4.651007 0.000000
v -0.060537 3.667380 0.064729
v 0.000000 3.667380 0.091540
v 0.060537 3.667380 0.064729
v 0.085612 3.667380 0.000000
v 0.060537 3.667380 -0.064728
v 0.000000 3.667380 -0.091540
v -0.060537 3.667380 -0.064728
v -0.085612 3.667380 0.000000
v -0.071664 4.003852 0.076626
v 0.000000 4.003852 0.108366
v 0.071664 4.003852 0.076626
v 0.101348 4.003852 0.000000
v 0.071664 4.003852 -0.076626
v 0.000000 4.003852 -0.108365
v -0.071664 4.003852 -0.076626
v -0.101348 4.003852 0.000000
v 0.071664 3.945519 -0.076626
v 0.101348 3.945519 0.000000
v 0.071664 3.945519 0.076626
v 0.000000 3.945519 0.108366
v -0.071664 3.945519 0.076626
v -0.101348 3.945519 0.000000
v -0.071664 3.945519 -0.076626
v 0.000000 3.945519 -0.108365
v 0.071664 3.691994 -0.076626
v 0.101348 3.691994 0.000000
v 0.071664 3.691994 0.076626
v 0.000000 3.691994 0.108366
v -0.071664 3.691994 0.076626
v -0.101348 3.691994 0.000000
v -0.071664 3.691994 -0.076626
v 0.000000 3.691994 -0.108365
v 0.086505 4.003852 -0.092494
v 0.122336 4.003852 0.000000
v 0.086505 4.003852 0.092495
v 0.000000 4.003852 0.130807
v -0.086505 4.003852 0.092495
v -0.122336 4.003852 0.000000
v -0.086505 4.003852 -0.092494
v 0.000000 4.003852 -0.130807
v 0.086505 3.951825 -0.092494
v 0.082053 3.945519 -0.087734
v 0.116040 3.945519 0.000000
v 0.122336 3.951825 0.000000
v 0.082053 3.945519 0.087735
v 0.086505 3.951825 0.092495
v 0.000000 3.945519 0.124075
v 0.000000 3.951825 0.130807
v -0.082053 3.945519 0.087735
v -0.086505 3.951825 0.092495
v -0.116040 3.945519 0.000000
v -0.122336 3.951825 0.000000
v -0.082053 3.945519 -0.087734
v -0.086505 3.951825 -0.092494
v 0.000000 3.945519 -0.124075
v 0.000000 3.951825 -0.130807
v 0.000000 3.691994 0.124075
v 0.000000 3.685688 0.130807
v -0.086505 3.685688 0.092495
v -0.082053 3.691994 0.087735
v 0.082053 3.691994 0.087735
v 0.086505 3.685688 0.092495
v 0.116040 3.691994 0.000000
v 0.122336 3.685688 0.000000
v 0.082053 3.691994 -0.087734
v 0.086505 3.685688 -0.092494
v 0.000000 3.691994 -0.124075
v 0.000000 3.685688 -0.130807
v -0.082053 3.691994 -0.087734
v -0.086505 3.685688 -0.092494
v -0.116040 3.691994 0.000000
v -0.122336 3.685688 0.000000
v -0.082627 3.667380 0.088349
v -0.086505 3.672872 0.092495
v 0.000000 3.672872 0.130807
v 0.000000 3.667380 0.124944
v 0.086505 3.672872 0.092495
v 0.082627 3.667380 0.088349
v 0.122336 3.672872 0.000000
v 0.116853 3.667380 0.000000
v 0.086505 3.672872 -0.092494
v 0.082627 3.667380 -0.088348
v 0.000000 3.672872 -0.130807
v 0.000000 3.667380 -0.124944
v -0.086505 3.672872 -0.092494
v -0.082627 3.667380 -0.088348
v -0.122336 3.672872 0.000000
v -0.116853 3.667380 0.000000
v -0.060537 0.202432 -0.064729
v -0.085612 0.202432 0.000000
v -0.060537 0.202432 0.064729
v 0.000000 0.202432 0.091540
v 0.060537 0.202432 0.064729
v 0.085612 0.202432 0.000000
v 0.060537 0.202432 -0.064729
v 0.000000 0.202432 -0.091540
v -0.069812 0.188428 -0.074646
v -0.098730 0.188428 0.000000
v -0.069812 0.172425 -0.074646
v -0.098730 0.172425 0.000000
v -0.069812 0.188428 0.074646
v -0.069812 0.172426 0.074646
v 0.000000 0.188428 0.105566
v 0.000000 0.172426 0.105566
v 0.069812 0.188428 0.074646
v 0.069812 0.172426 0.074646
v 0.098730 0.188428 0.000000
v 0.098730 0.172425 0.000000
v 0.069812 0.188428 -0.074646
v 0.069812 0.172426 -0.074646
v 0.000000 0.188428 -0.105566
v 0.000000 0.172426 -0.105566
v -0.258438 -0.000283 0.276332
v 0.000000 -0.000283 0.390793
v 0.258438 -0.000283 0.276332
v 0.365486 -0.000283 -0.000000
v 0.258438 -0.000283 -0.276332
v 0.000000 -0.000283 -0.390793
v -0.258438 -0.000283 -0.276332
v -0.365486 -0.000283 -0.000000
v -0.147141 0.073055 0.157329
v -0.113707 0.097241 0.121580
v 0.000000 0.073055 0.222497
v 0.000000 0.097241 0.171940
v 0.147141 0.073055 0.157329
v 0.113707 0.097241 0.121580
v 0.208088 0.073055 0.000000
v 0.160806 0.097241 0.000000
v 0.147141 0.073055 -0.157329
v 0.113707 0.097241 -0.121580
v 0.000000 0.073055 -0.222497
v 0.000000 0.097241 -0.171940
v -0.147141 0.073055 -0.157329
v -0.113707 0.097241 -0.121580
v -0.208088 0.073055 0.000000
v -0.160806 0.097241 0.000000
v -0.064603 0.158422 0.069077
v -0.063319 0.162622 0.067704
v 0.000000 0.158422 0.097689
v 0.000000 0.162622 0.095747
v 0.064603 0.158422 0.069077
v 0.063319 0.162622 0.067704
v 0.091363 0.158422 0.000000
v 0.089547 0.162622 0.000000
v 0.064603 0.158422 -0.069077
v 0.063319 0.162622 -0.067703
v 0.000000 0.158422 -0.097689
v 0.000000 0.162622 -0.095747
v -0.064603 0.158422 -0.069077
v -0.063319 0.162622 -0.067703
v -0.091363 0.158422 0.000000
v -0.089547 0.162622 0.000000
v -0.095762 0.158422 0.102392
v -0.099655 0.154501 0.106555
v 0.000000 0.158422 0.144804
v 0.000000 0.154501 0.150691
v 0.095762 0.158422 0.102392
v 0.099655 0.154501 0.106555
v 0.135427 0.158422 0.000000
v 0.140933 0.154501 0.000000
v 0.095762 0.158422 -0.102392
v 0.099655 0.154501 -0.106555
v 0.000000 0.158422 -0.144804
v 0.000000 0.154501 -0.150691
v -0.095762 0.158422 -0.102392
v -0.099655 0.154501 -0.106555
v -0.135427 0.158422 0.000000
v -0.140933 0.154501 0.000000
v -0.221042 0.073427 0.236347
v -0.230875 0.065481 0.246861
v 0.000000 0.073427 0.334245
v 0.000000 0.065481 0.349114
v 0.221042 0.073427 0.236347
v 0.230875 0.065481 0.246861
v 0.312601 0.073427 0.000000
v 0.326506 0.065482 0.000000
v 0.221042 0.073427 -0.236347
v 0.230875 0.065482 -0.246861
v 0.000000 0.073427 -0.334245
v 0.000000 0.065482 -0.349114
v -0.221042 0.073427 -0.236347
v -0.230875 0.065482 -0.246861
v -0.312601 0.073427 0.000000
v -0.326506 0.065482 0.000000
v -0.206944 4.082802 0.127126
v -0.120000 4.082802 0.220090
v -0.001232 4.082802 0.254118
v 0.117536 4.082802 0.220090
v 0.204481 4.082802 0.127126
v 0.236305 4.082802 0.000134
v 0.204481 4.082802 -0.126858
v 0.117536 4.082802 -0.219822
v -0.001232 4.082802 -0.253849
v -0.120000 4.082802 -0.219822
v -0.206944 4.082802 -0.126858
v -0.238768 4.082802 0.000134
v -0.078237 3.980249 0.048297
v -0.045170 3.980249 0.083656
v -0.092842 4.015150 0.171941
v -0.160806 4.015149 0.099270
v 0.000000 3.980249 0.096597
v -0.000000 4.015148 0.198539
v 0.045172 3.980249 0.083654
v 0.092841 4.015148 0.171940
v 0.078237 3.980249 0.048300
v 0.160806 4.015149 0.099269
v 0.090341 3.980249 0.000001
v 0.185682 4.015149 0.000001
v 0.078237 3.980249 -0.048299
v 0.160806 4.015149 -0.099270
v 0.045170 3.980249 -0.083655
v 0.092842 4.015150 -0.171940
v -0.000000 3.980249 -0.096596
v 0.000000 4.015148 -0.198538
v -0.045172 3.980249 -0.083654
v -0.092841 4.015148 -0.171939
v -0.078237 3.980249 -0.048299
v -0.160806 4.015149 -0.099269
v -0.090341 3.980249 -0.000001
v -0.185682 4.015149 0.000000
v -0.124197 4.070613 0.230012
v -0.215116 4.070613 0.132798
v -0.000001 4.070613 0.265594
v 0.124197 4.070613 0.230012
v 0.215116 4.070613 0.132798
v 0.248395 4.070613 -0.000000
v 0.215116 4.070613 -0.132797
v 0.124197 4.070613 -0.230011
v 0.000001 4.070613 -0.265594
v -0.124197 4.070613 -0.230011
v -0.215116 4.070613 -0.132797
v -0.248395 4.070613 0.000001
v 0.000029 3.968325 0.000024
v 0.113559 4.045130 0.210310
v -0.000001 4.045130 0.242844
v -0.113559 4.045130 0.210310
v -0.196691 4.045130 0.121423
v -0.227118 4.045130 0.000000
v -0.196690 4.045130 -0.121422
v -0.113559 4.045130 -0.210309
v 0.000001 4.045130 -0.242844
v 0.113559 4.045130 -0.210309
v 0.196691 4.045130 -0.121422
v 0.227118 4.045130 0.000000
v 0.196690 4.045130 0.121423
v 0.286417 4.338408 -0.176813
v 0.286417 4.295446 -0.176813
v 0.165363 4.338408 -0.306249
v 0.165363 4.295446 -0.306249
v 0.020907 4.295433 -0.347634
v -0.020907 4.295433 -0.347634
v -0.165363 4.338408 -0.306249
v -0.165363 4.295446 -0.306249
v -0.286417 4.338408 -0.176813
v -0.286417 4.295446 -0.176813
v 0.020178 4.066795 -0.233636
v -0.020178 4.066795 -0.233636
v 0.021072 4.149886 -0.302826
v -0.021072 4.149886 -0.302826
v 0.020942 4.230461 -0.338492
v -0.020942 4.230461 -0.338492
v -0.008409 4.338408 -0.347634
v 0.008409 4.338408 -0.347634
v -0.325123 4.295433 -0.022354
v -0.325123 4.295433 0.022355
v -0.286417 4.338408 0.176813
v -0.286417 4.295446 0.176813
v -0.165363 4.338408 0.306249
v -0.165363 4.295446 0.306249
v -0.218507 4.066795 -0.021574
v -0.218507 4.066795 0.021575
v -0.283216 4.149886 -0.022531
v -0.283216 4.149886 0.022531
v -0.316573 4.230461 -0.022392
v -0.316573 4.230461 0.022392
v -0.325123 4.338408 0.008992
v -0.325123 4.338408 -0.008991
v -0.020907 4.295433 0.347635
v 0.020907 4.295433 0.347635
v 0.165363 4.338408 0.306249
v 0.165363 4.295446 0.306249
v 0.286417 4.338408 0.176813
v 0.286417 4.295446 0.176813
v -0.020178 4.066795 0.233637
v 0.020178 4.066795 0.233637
v -0.021072 4.149886 0.302827
v 0.021072 4.149886 0.302827
v -0.020942 4.230461 0.338493
v 0.020942 4.230461 0.338493
v 0.008409 4.338408 0.347635
v -0.008409 4.338408 0.347635
v 0.325123 4.295433 0.022355
v 0.325123 4.295433 -0.022354
v 0.218507 4.066795 0.021575
v 0.218507 4.066795 -0.021574
v 0.283216 4.149886 0.022531
v 0.283216 4.149886 -0.022531
v 0.316573 4.230461 0.022392
v 0.316573 4.230461 -0.022392
v 0.325123 4.338408 -0.008991
v 0.325123 4.338408 0.008992
v -0.008648 4.067511 -0.252837
v 0.008648 4.067511 -0.252837
v -0.008953 4.142517 -0.316394
v 0.008953 4.142517 -0.316394
v -0.299726 4.326553 -0.184858
v -0.299301 4.307868 -0.184740
v -0.172887 4.326553 -0.320478
v -0.172777 4.307868 -0.320024
v 0.008823 4.226643 -0.353637
v -0.008823 4.226643 -0.353637
v 0.172887 4.326553 -0.320478
v 0.172777 4.307868 -0.320024
v 0.010796 4.306494 -0.362734
v 0.010299 4.326538 -0.363412
v -0.010797 4.306494 -0.362734
v -0.010299 4.326538 -0.363412
v 0.299726 4.326553 -0.184858
v 0.299301 4.307868 -0.184740
v -0.236465 4.067511 0.009247
v -0.236465 4.067511 -0.009247
v -0.295906 4.142518 0.009573
v -0.295905 4.142517 -0.009573
v -0.172887 4.326553 0.320479
v -0.172777 4.307868 0.320025
v -0.299726 4.326553 0.184858
v -0.299301 4.307868 0.184741
v -0.330737 4.226643 -0.009433
v -0.330737 4.226643 0.009434
v -0.339245 4.306494 -0.011544
v -0.339878 4.326538 -0.011012
v -0.339245 4.306494 0.011544
v -0.339878 4.326538 0.011012
v 0.008648 4.067511 0.252838
v -0.008648 4.067511 0.252838
v 0.008953 4.142517 0.316394
v -0.008953 4.142517 0.316394
v 0.299726 4.326553 0.184858
v 0.299301 4.307868 0.184741
v 0.172887 4.326553 0.320479
v 0.172777 4.307868 0.320025
v -0.008823 4.226643 0.353637
v 0.008823 4.226643 0.353637
v -0.010796 4.306494 0.362734
v -0.010299 4.326538 0.363412
v 0.010797 4.306494 0.362734
v 0.010299 4.326538 0.363412
v 0.236465 4.067511 -0.009247
v 0.236465 4.067511 0.009247
v 0.295906 4.142518 -0.009573
v 0.295905 4.142517 0.009573
v 0.330737 4.226643 0.009434
v 0.330737 4.226643 -0.009433
v 0.339245 4.306494 0.011544
v 0.339878 4.326538 0.011013
v 0.339245 4.306494 -0.011544
v 0.339878 4.326538 -0.011012
vn -0.2951 -0.9493 0.1087
vn -0.2745 -0.8526 0.4446
vn -0.4710 -0.8446 0.2543
vn -0.1172 -0.9536 0.2772
vn -0.0000 -0.8567 0.5158
vn 0.1172 -0.9536 0.2772
vn 0.0570 -0.9669 0.2487
vn 0.2490 -0.9507 0.1849
vn 0.2395 -0.8644 0.4421
vn 0.5413 -0.8408 -0.0000
vn 0.4400 -0.8569 0.2686
vn 0.2953 -0.9492 -0.1090
vn 0.2648 -0.9628 -0.0531
vn 0.2745 -0.8526 -0.4446
vn 0.4679 -0.8555 -0.2217
vn 0.1172 -0.9536 -0.2772
vn -0.0000 -0.8567 -0.5158
vn -0.1172 -0.9536 -0.2772
vn -0.0570 -0.9669 -0.2487
vn -0.2490 -0.9507 -0.1849
vn -0.2395 -0.8644 -0.4421
vn -0.5413 -0.8408 -0.0000
vn -0.4400 -0.8569 -0.2686
vn -0.2648 -0.9628 0.0531
vn -0.3747 -0.7009 0.6069
vn -0.6378 -0.6889 0.3444
vn -0.0000 -0.7071 0.7071
vn 0.3541 -0.7115 0.6069
vn 0.7303 -0.6831 -0.0000
vn 0.6206 -0.6997 0.3540
vn 0.3747 -0.7009 -0.6069
vn 0.6372 -0.6987 -0.3253
vn -0.0000 -0.7071 -0.7071
vn -0.3541 -0.7115 -0.6069
vn -0.7303 -0.6831 -0.0000
vn -0.6206 -0.6997 -0.3540
vn -0.7685 -0.4870 0.4150
vn -0.4616 -0.5073 0.7277
vn 0.4551 -0.4996 0.7371
vn -0.0110 -0.5142 0.8576
vn 0.7685 -0.4870 0.4150
vn 0.8767 -0.4811 -0.0000
vn 0.7694 -0.4948 -0.4040
vn 0.4616 -0.5073 -0.7277
vn -0.4551 -0.4995 -0.7371
vn 0.0110 -0.5142 -0.8576
vn -0.7685 -0.4870 -0.4150
vn -0.8767 -0.4811 -0.0000
vn -0.5072 -0.2600 0.8216
vn -0.8515 -0.2522 0.4598
vn 0.5072 -0.2601 0.8216
vn -0.0052 -0.2692 0.9631
vn 0.9687 -0.2484 -0.0000
vn 0.8482 -0.2568 0.4633
vn 0.5072 -0.2600 -0.8216
vn 0.8527 -0.2566 -0.4551
vn -0.5072 -0.2601 -0.8216
vn 0.0052 -0.2692 -0.9631
vn -0.9687 -0.2484 -0.0000
vn -0.8482 -0.2568 -0.4633
vn -0.8799 -0.0000 0.4751
vn -0.0000 -0.0000 1.0000
vn -0.5253 -0.0000 0.8509
vn 0.8799 -0.0000 0.4751
vn 0.5253 -0.0000 0.8509
vn 0.8799 -0.0000 -0.4751
vn 1.0000 -0.0000 -0.0000
vn -0.0000 -0.0000 -1.0000
vn 0.5253 -0.0000 -0.8509
vn -0.8799 -0.0000 -0.4751
vn -0.5253 -0.0000 -0.8509
vn -1.0000 -0.0000 -0.0000
vn -0.5072 0.2601 0.8216
vn -0.8515 0.2522 0.4598
vn -0.0000 0.2644 0.9644
vn 0.5108 0.2654 0.8177
vn 0.9687 0.2484 -0.0000
vn 0.8526 0.2573 0.4549
vn 0.5072 0.2601 -0.8216
vn 0.8480 0.2574 -0.4633
vn -0.0000 0.2644 -0.9644
vn -0.5108 0.2654 -0.8177
vn -0.9687 0.2484 -0.0000
vn -0.8526 0.2573 -0.4549
vn -0.4551 0.4995 0.7371
vn -0.7685 0.4870 0.4150
vn -0.0000 0.5061 0.8625
vn 0.4551 0.4994 0.7372
vn 0.7682 0.4972 0.4034
vn 0.7685 0.4870 -0.4150
vn 0.8708 0.4915 -0.0097
vn 0.4551 0.4995 -0.7371
vn -0.0000 0.5061 -0.8625
vn -0.4551 0.4994 -0.7372
vn -0.7682 0.4972 -0.4034
vn -0.8708 0.4915 0.0097
vn -0.3747 0.7009 0.6070
vn -0.6379 0.6889 0.3444
vn 0.0180 0.7217 0.6920
vn 0.3819 0.7150 0.5855
vn 0.6333 0.7033 0.3230
vn 0.6379 0.6889 -0.3444
vn 0.7158 0.6981 -0.0161
vn 0.3747 0.7009 -0.6070
vn -0.0180 0.7217 -0.6920
vn -0.3819 0.7150 -0.5855
vn -0.6333 0.7033 -0.3230
vn -0.7158 0.6981 0.0161
vn -0.2745 0.8526 0.4447
vn -0.4708 0.8448 0.2542
vn 0.2745 0.8526 0.4447
vn 0.0290 0.8737 0.4856
vn 0.4580 0.8622 0.2165
vn 0.5107 0.8593 -0.0268
vn 0.2745 0.8526 -0.4447
vn 0.4303 0.8635 -0.2630
vn -0.2745 0.8526 -0.4447
vn -0.0290 0.8737 -0.4856
vn -0.4580 0.8622 -0.2165
vn -0.5107 0.8593 0.0268
vn -0.2911 0.9437 0.1572
vn -0.0833 0.9667 0.2421
vn 0.1686 0.9471 0.2731
vn 0.0570 0.9669 0.2487
vn 0.2911 0.9437 0.1572
vn 0.2911 0.9437 -0.1572
vn 0.2648 0.9628 -0.0531
vn 0.0833 0.9667 -0.2421
vn -0.1686 0.9471 -0.2731
vn -0.0570 0.9669 -0.2487
vn -0.2911 0.9437 -0.1572
vn -0.2648 0.9628 0.0531
vn -0.0000 -1.0000 -0.0000
vn -0.0000 1.0000 -0.0000
vn -0.1161 -0.3721 0.9209
vn -0.7011 0.2802 0.6557
vn -0.7061 -0.2557 0.6603
vn 0.6006 -0.3639 0.7119
vn 0.0890 0.3842 0.9189
vn 0.9305 -0.3516 0.1027
vn 0.7322 0.3713 0.5710
vn 0.7510 -0.3590 -0.5542
vn 0.9284 0.3631 -0.0787
vn 0.1161 -0.3721 -0.9209
vn 0.6169 0.3751 -0.6919
vn -0.6006 -0.3639 -0.7119
vn -0.0890 0.3842 -0.9189
vn -0.9305 -0.3516 -0.1027
vn -0.7322 0.3713 -0.5710
vn -0.9284 0.3630 0.0787
vn 0.8531 -0.2454 -0.4604
vn 0.9644 0.2644 -0.0000
vn 0.9964 -0.0851 -0.0000
vn 0.7017 0.2775 0.6562
vn 0.7276 -0.0878 0.6804
vn -0.0000 0.2814 0.9596
vn -0.0000 -0.0906 0.9959
vn -0.7017 0.2775 0.6562
vn -0.7275 -0.0878 0.6804
vn -0.9644 0.2644 -0.0000
vn -0.9964 -0.0851 -0.0000
vn -0.7017 0.2775 -0.6562
vn -0.7276 -0.0878 -0.6804
vn -0.0000 0.2814 -0.9596
vn -0.0000 -0.0906 -0.9959
vn 0.1937 0.6789 -0.7082
vn 0.7304 -0.0000 -0.6831
vn 0.7304 -0.0000 0.6831
vn -0.7304 -0.0000 0.6831
vn -0.7304 -0.0000 -0.6831
vn -0.0000 -0.9743 0.2251
vn -0.1703 -0.9724 0.1592
vn -0.2783 0.9246 0.2602
vn -0.0000 0.9292 0.3696
vn 0.2783 0.9246 0.2603
vn 0.2371 -0.9715 -0.0000
vn 0.4192 -0.9019 0.1044
vn 0.3914 0.9202 -0.0000
vn 0.2783 0.9246 -0.2602
vn -0.0000 -0.9743 -0.2251
vn 0.1128 -0.9113 -0.3961
vn -0.0000 0.9292 -0.3696
vn -0.2783 0.9246 -0.2603
vn -0.2371 -0.9715 -0.0000
vn -0.4192 -0.9019 -0.1044
vn -0.3914 0.9202 -0.0000
vn 0.2783 -0.9246 -0.2602
vn 0.3908 -0.9205 -0.0000
vn 0.2783 -0.9246 0.2602
vn -0.0000 -0.9291 0.3699
vn -0.2783 -0.9246 0.2602
vn -0.3908 -0.9205 -0.0000
vn -0.2783 -0.9246 -0.2602
vn -0.0000 -0.9291 -0.3699
vn -0.6732 0.3511 -0.6508
vn -0.9563 -0.2924 -0.0000
vn -0.9351 0.3544 -0.0000
vn -0.6965 -0.3009 0.6514
vn -0.6801 0.3646 0.6360
vn -0.0000 -0.3108 0.9505
vn -0.0000 0.3755 0.9268
vn 0.6965 -0.3008 0.6514
vn 0.6801 0.3646 0.6360
vn 0.9352 0.3541 0.0031
vn 0.9562 -0.2928 -0.0000
vn 0.6965 -0.3009 -0.6514
vn 0.6801 0.3646 -0.6360
vn -0.0000 -0.3106 -0.9505
vn -0.0000 0.3755 -0.9268
vn -0.6474 -0.3571 -0.6733
vn -0.7298 0.6836 -0.0000
vn -0.7298 -0.6836 -0.0000
vn -0.5249 -0.6953 -0.4909
vn -0.5249 0.6953 0.4909
vn -0.0000 0.7077 0.7065
vn -0.0000 -0.7076 0.7066
vn -0.5249 -0.6953 0.4909
vn 0.5249 0.6953 0.4909
vn 0.7298 0.6836 -0.0000
vn 0.7298 -0.6836 -0.0000
vn 0.5249 -0.6953 0.4909
vn 0.5249 0.6953 -0.4909
vn -0.0000 0.7077 -0.7065
vn -0.0000 -0.7077 -0.7066
vn 0.5249 -0.6953 -0.4909
vn -0.5249 0.6953 -0.4909
vn -0.0974 0.9911 0.0911
vn -0.0000 0.9914 0.1312
vn 0.0982 0.9909 0.0919
vn 0.1383 0.9904 -0.0000
vn 0.0973 0.9911 -0.0912
vn -0.0000 0.9914 -0.1312
vn -0.0982 0.9909 -0.0919
vn -0.1383 0.9904 -0.0000
vn -0.3775 0.3617 0.8524
vn -0.2894 0.6995 0.6534
vn 0.3770 0.3653 0.8511
vn 0.2894 0.6995 0.6534
vn 0.3779 0.3593 0.8533
vn 0.8733 0.3506 0.3383
vn 0.6816 0.6824 0.2641
vn 0.6816 0.6824 0.2640
vn 0.8733 0.3506 -0.3383
vn 0.6816 0.6824 -0.2641
vn 0.8753 0.3447 -0.3391
vn 0.3775 0.3617 -0.8524
vn 0.2894 0.6995 -0.6534
vn -0.3770 0.3653 -0.8511
vn -0.2894 0.6995 -0.6534
vn -0.3779 0.3593 -0.8533
vn -0.8733 0.3506 -0.3383
vn -0.6816 0.6824 -0.2641
vn -0.6816 0.6824 -0.2640
vn -0.8733 0.3506 0.3383
vn -0.6816 0.6825 0.2640
vn -0.8753 0.3447 0.3391
vn -0.0332 0.9966 0.0750
vn -0.0498 0.9924 0.1124
vn -0.0339 0.9965 0.0766
vn 0.0334 0.9966 0.0754
vn 0.0483 0.9929 0.1091
vn 0.0499 0.9924 0.1127
vn 0.0801 0.9963 0.0310
vn 0.1201 0.9917 0.0465
vn 0.0818 0.9961 0.0317
vn 0.0801 0.9963 -0.0310
vn 0.1166 0.9922 -0.0452
vn 0.1205 0.9916 -0.0467
vn 0.0332 0.9966 -0.0750
vn 0.0498 0.9924 -0.1124
vn 0.0339 0.9965 -0.0766
vn -0.0334 0.9966 -0.0754
vn -0.0483 0.9929 -0.1091
vn -0.0499 0.9924 -0.1127
vn -0.0801 0.9963 -0.0310
vn -0.1201 0.9917 -0.0465
vn -0.0818 0.9961 -0.0317
vn -0.0806 0.9963 0.0312
vn -0.1201 0.9917 0.0465
vn -0.1159 0.9922 0.0449
vn -0.3373 0.5535 0.7615
vn -0.3504 0.5014 0.7911
vn 0.3368 0.5553 0.7604
vn 0.3504 0.5014 0.7911
vn 0.3378 0.5515 0.7627
vn 0.7865 0.5372 0.3047
vn 0.8161 0.4837 0.3162
vn 0.7888 0.5334 0.3056
vn 0.7865 0.5372 -0.3047
vn 0.8161 0.4837 -0.3162
vn 0.7888 0.5334 -0.3056
vn 0.3373 0.5535 -0.7615
vn 0.3504 0.5014 -0.7911
vn -0.3368 0.5553 -0.7604
vn -0.3504 0.5014 -0.7911
vn -0.3378 0.5515 -0.7627
vn -0.7876 0.5354 -0.3051
vn -0.8161 0.4837 -0.3162
vn -0.7876 0.5354 0.3051
vn -0.8161 0.4837 0.3162
vn -0.7871 0.5361 0.3049
vn -0.0809 0.9962 0.0314
vn 0.0335 0.9966 0.0757
vn 0.2894 0.6994 0.6535
vn 0.6816 0.6824 -0.2640
vn -0.0335 0.9966 -0.0757
vn -0.2894 0.6994 -0.6535
vn -0.6669 0.4077 0.6237
vn -0.0000 0.4196 0.9077
vn -0.9179 0.3969 -0.0000
vn 0.6669 0.4077 0.6237
vn 0.9179 0.3969 -0.0000
vn 0.6669 0.4077 -0.6237
vn -0.0000 0.4196 -0.9077
vn -0.6669 0.4077 -0.6237
vn -0.3771 0.3645 0.8514
vn 0.3771 0.3645 -0.8514
vn -0.3371 0.5542 0.7611
vn -0.0480 0.9929 0.1085
vn 0.1159 0.9922 0.0449
vn 0.3371 0.5542 -0.7611
vn 0.0480 0.9929 -0.1085
vn -0.7871 0.5361 -0.3049
vn -0.1159 0.9922 -0.0449
vn -0.1813 -0.9596 0.2152
vn -0.4085 -0.8857 0.2206
vn -0.2670 -0.9529 0.1441
vn -0.0000 -0.8951 0.4459
vn -0.2280 -0.8856 0.4045
vn 0.0419 -0.9615 0.2716
vn 0.2375 -0.8920 0.3847
vn 0.1812 -0.9596 0.2152
vn 0.4085 -0.8857 0.2206
vn 0.2889 -0.9566 0.0390
vn 0.2361 -0.9691 0.0711
vn 0.2714 -0.9571 -0.1013
vn 0.4830 -0.8755 -0.0174
vn 0.2375 -0.8920 -0.3847
vn 0.4107 -0.8791 -0.2419
vn 0.1088 -0.9609 -0.2547
vn -0.0000 -0.8951 -0.4459
vn -0.0419 -0.9615 -0.2716
vn -0.2375 -0.8920 -0.3847
vn -0.1811 -0.9596 -0.2152
vn -0.4085 -0.8857 -0.2206
vn -0.2889 -0.9566 -0.0390
vn -0.2361 -0.9691 -0.0711
vn -0.4830 -0.8755 0.0173
vn -0.5932 -0.7386 0.3203
vn -0.0000 -0.7555 0.6551
vn -0.3379 -0.7405 0.5809
vn 0.5932 -0.7386 0.3203
vn 0.3684 -0.7395 0.5634
vn 0.6799 -0.7333 -0.0000
vn 0.5940 -0.7292 -0.3398
vn -0.0000 -0.7555 -0.6551
vn 0.3379 -0.7405 -0.5809
vn -0.5932 -0.7386 -0.3203
vn -0.3684 -0.7395 -0.5634
vn -0.6799 -0.7333 -0.0000
vn -0.4022 0.6573 0.6374
vn -0.8425 -0.2850 0.4571
vn -0.5002 -0.2852 0.8176
vn -0.0089 0.6850 0.7285
vn 0.0048 -0.2751 0.9614
vn 0.3689 0.6997 0.6119
vn 0.5113 -0.2560 0.8204
vn 0.6236 0.7031 0.3417
vn 0.8562 -0.2363 0.4595
vn 0.7100 0.7042 0.0010
vn 0.9729 -0.2314 -0.0004
vn 0.8563 -0.2342 -0.4604
vn 0.6210 0.7069 -0.3387
vn 0.5115 -0.2519 -0.8215
vn 0.3662 0.7064 -0.6057
vn 0.0048 -0.2690 -0.9631
vn -0.0087 0.6934 -0.7205
vn -0.5007 -0.2794 -0.8193
vn -0.3992 0.6650 -0.6311
vn -0.8430 -0.2817 -0.4582
vn -0.6826 0.6344 -0.3627
vn -0.9596 -0.2812 -0.0004
vn -0.7848 0.6198 0.0011
vn -0.6854 0.6297 0.3658
vn -0.5175 -0.5538 -0.6523
vn 0.4444 -0.4801 -0.7563
vn 0.5178 -0.5537 -0.6522
vn -0.8080 0.4018 -0.4310
vn -0.4845 -0.4073 -0.7742
vn -0.8054 -0.3961 -0.4409
vn -0.4154 -0.2495 -0.8747
vn 0.4153 -0.2496 -0.8748
vn 0.4646 0.4143 -0.7826
vn 0.2495 -0.2156 -0.9441
vn 0.2067 0.4214 -0.8830
vn -0.2079 -0.2239 -0.9522
vn -0.4639 0.4150 -0.7827
vn -0.1101 0.5098 -0.8532
vn 0.4561 -0.4380 -0.7747
vn 0.8075 0.4023 -0.4314
vn 0.8054 -0.3962 -0.4409
vn -0.6881 -0.5463 0.4775
vn -0.7865 -0.4669 -0.4043
vn -0.6880 -0.5462 -0.4778
vn -0.4833 -0.4335 0.7606
vn -0.8075 0.4023 0.4314
vn -0.8054 -0.3962 0.4409
vn -0.8978 -0.2363 -0.3717
vn -0.7871 -0.4811 0.3861
vn -0.8967 -0.2393 0.3724
vn -0.9537 -0.2043 -0.2208
vn -0.8977 0.4008 -0.1830
vn -0.9537 -0.2042 0.2207
vn -0.8682 0.4865 0.0980
vn 0.5175 -0.5538 0.6523
vn -0.4444 -0.4801 0.7563
vn -0.5178 -0.5537 0.6522
vn 0.8080 0.4018 0.4310
vn 0.4845 -0.4073 0.7742
vn 0.8054 -0.3961 0.4409
vn 0.4154 -0.2495 0.8747
vn -0.4153 -0.2496 0.8748
vn -0.4628 0.4253 0.7778
vn -0.2495 -0.2156 0.9441
vn -0.2067 0.4214 0.8830
vn 0.2079 -0.2239 0.9522
vn 0.4639 0.4150 0.7827
vn 0.1101 0.5098 0.8532
vn 0.6881 -0.5463 -0.4775
vn 0.7865 -0.4669 0.4043
vn 0.6880 -0.5462 0.4778
vn 0.8978 -0.2363 0.3717
vn 0.7871 -0.4811 -0.3861
vn 0.8967 -0.2393 -0.3724
vn 0.9537 -0.2043 0.2208
vn 0.8977 0.4008 0.1830
vn 0.9537 -0.2042 -0.2207
vn 0.8682 0.4865 -0.0980
vn -0.7856 -0.3334 -0.5213
vn -0.7756 -0.4088 -0.4809
vn 0.7856 -0.3334 -0.5213
vn -0.5342 0.7949 -0.2876
vn -0.5495 -0.7737 -0.3155
vn -0.3412 -0.7829 -0.5202
vn 0.7894 -0.1791 -0.5872
vn -0.7894 -0.1791 -0.5872
vn -0.4149 -0.4808 -0.7724
vn 0.4185 -0.5828 -0.6966
vn 0.3414 -0.7829 -0.5201
vn 0.3112 0.8046 -0.5057
vn 0.1380 0.7992 -0.5850
vn -0.4185 -0.5828 -0.6965
vn -0.1381 0.7992 -0.5850
vn -0.3112 0.8046 -0.5057
vn 0.5342 0.7949 -0.2876
vn 0.5496 -0.7736 -0.3154
vn -0.5685 -0.3399 0.7492
vn -0.5255 -0.4177 0.7412
vn -0.5684 -0.3399 -0.7492
vn -0.5342 0.7949 0.2876
vn -0.3112 0.8046 0.5057
vn -0.3414 -0.7829 0.5201
vn -0.5496 -0.7736 0.3154
vn -0.6371 -0.1818 -0.7491
vn -0.6370 -0.1818 0.7491
vn -0.7277 -0.5694 -0.3824
vn -0.6114 0.7812 -0.1262
vn -0.7277 -0.5694 0.3824
vn -0.6114 0.7812 0.1262
vn 0.7856 -0.3334 0.5213
vn 0.7756 -0.4088 0.4809
vn -0.7856 -0.3334 0.5213
vn 0.5342 0.7949 0.2876
vn 0.5495 -0.7737 0.3155
vn 0.3412 -0.7829 0.5202
vn -0.7894 -0.1791 0.5872
vn 0.7894 -0.1791 0.5872
vn 0.4149 -0.4808 0.7724
vn -0.4185 -0.5828 0.6966
vn -0.1380 0.7992 0.5850
vn 0.4185 -0.5828 0.6965
vn 0.1381 0.7992 0.5850
vn 0.3112 0.8046 0.5057
vn 0.5685 -0.3399 -0.7492
vn 0.5255 -0.4177 -0.7412
vn 0.5684 -0.3399 0.7492
vn 0.6371 -0.1818 0.7491
vn 0.6370 -0.1818 -0.7491
vn 0.7277 -0.5694 0.3824
vn 0.6114 0.7812 0.1262
vn 0.7277 -0.5694 -0.3824
vn 0.6114 0.7812 -0.1262
vn 0.8753 0.3447 0.3391
vn -0.8753 0.3447 -0.3391
vn -0.6817 0.6824 0.2641
vn 0.0818 0.9961 -0.0317
vn 0.7756 -0.4088 -0.4809
vn -0.5255 -0.4177 -0.7412
vn -0.7756 -0.4088 0.4809
vn 0.5255 -0.4177 0.7412
vt 0.000000 0.083333
vt 0.083333 0.166667
vt 0.000000 0.166667
vt 0.083333 0.083333
vt 0.166667 0.166667
vt 0.250000 0.083333
vt 0.166667 0.083333
vt 0.333333 0.083333
vt 0.250000 0.166667
vt 0.416667 0.166667
vt 0.333333 0.166667
vt 0.500000 0.083333
vt 0.416667 0.083333
vt 0.583333 0.166667
vt 0.500000 0.166667
vt 0.583333 0.083333
vt 0.666667 0.166667
vt 0.750000 0.083333
vt 0.666667 0.083333
vt 0.833333 0.083333
vt 0.750000 0.166667
vt 0.916667 0.166667
vt 0.833333 0.166667
vt 1.000000 0.083333
vt 0.916667 0.083333
vt 0.083333 0.250000
vt 0.000000 0.250000
vt 0.166667 0.250000
vt 0.250000 0.250000
vt 0.416667 0.250000
vt 0.333333 0.250000
vt 0.583333 0.250000
vt 0.500000 0.250000
vt 0.666667 0.250000
vt 0.750000 0.250000
vt 0.916667 0.250000
vt 0.833333 0.250000
vt 1.000000 0.166667
vt 0.309725 0.250000
vt 0.260843 0.333333
vt 0.287912 0.250000
vt 0.368451 0.250000
vt 0.275274 0.333333
vt 0.343510 0.333333
vt 0.356147 0.333333
vt 0.363196 0.250000
vt 0.333333 0.333333
vt 0.416667 0.333333
vt 0.500000 0.333333
vt 0.583333 0.333333
vt 0.750000 0.333333
vt 0.666667 0.333333
vt 0.676176 0.250000
vt 0.722598 0.333333
vt 0.702911 0.250000
vt 0.690275 0.333333
vt 0.707167 0.250000
vt 0.690275 0.250000
vt 0.275274 0.416667
vt 0.221470 0.416667
vt 0.360735 0.416667
vt 0.299549 0.416667
vt 0.416667 0.416667
vt 0.333333 0.416667
vt 0.583333 0.416667
vt 0.500000 0.416667
vt 0.750000 0.416667
vt 0.666667 0.416667
vt 0.690275 0.416667
vt 0.769353 0.416667
vt 0.739157 0.333333
vt 0.191941 0.500000
vt 0.166667 0.500000
vt 0.275274 0.500000
vt 0.333333 0.500000
vt 0.250000 0.500000
vt 0.500000 0.500000
vt 0.416667 0.500000
vt 0.666667 0.500000
vt 0.583333 0.500000
vt 0.833333 0.500000
vt 0.750000 0.500000
vt 0.872039 0.500000
vt 0.815775 0.500000
vt 0.216444 0.425781
vt 0.161888 0.509114
vt 0.130507 0.509114
vt 0.261300 0.425781
vt 0.260177 0.509114
vt 0.309059 0.425781
vt 0.279863 0.425781
vt 0.333333 0.425781
vt 0.311520 0.509114
vt 0.416667 0.509114
vt 0.333333 0.509114
vt 0.500000 0.425781
vt 0.416667 0.425781
vt 0.583333 0.509114
vt 0.500000 0.509114
vt 0.583333 0.425781
vt 0.666667 0.509114
vt 0.705706 0.425781
vt 0.666667 0.425781
vt 0.724078 0.425781
vt 0.700784 0.509114
vt 0.826823 0.509114
vt 0.754038 0.509114
vt 0.778530 0.423320
vt 0.754255 0.425781
vt 0.083333 0.592448
vt 0.039062 0.592448
vt 0.166667 0.592448
vt 0.277069 0.592448
vt 0.333333 0.592448
vt 0.500000 0.592448
vt 0.416667 0.592448
vt 0.583333 0.592448
vt 0.666667 0.592448
vt 0.750000 0.592448
vt 0.789039 0.592448
vt 0.945312 0.592448
vt 0.869792 0.592448
vt 0.083333 0.675781
vt 0.000000 0.675781
vt 0.166667 0.675781
vt 0.250000 0.675781
vt 0.333333 0.675781
vt 0.500000 0.675781
vt 0.416667 0.675781
vt 0.583333 0.675781
vt 0.666667 0.675781
vt 0.750000 0.675781
vt 0.833333 0.675781
vt 0.987696 0.675781
vt 0.916667 0.675781
vt 0.083333 0.759114
vt 0.007812 0.759114
vt 0.250000 0.759114
vt 0.166667 0.759114
vt 0.333333 0.759114
vt 0.416667 0.759114
vt 0.583333 0.759114
vt 0.500000 0.759114
vt 0.750000 0.759114
vt 0.666667 0.759114
vt 0.833333 0.759114
vt 0.916667 0.759114
vt 0.046875 0.825223
vt 0.083333 0.825223
vt 0.250000 0.825223
vt 0.166667 0.825223
vt 0.333333 0.825223
vt 0.500000 0.825223
vt 0.416667 0.825223
vt 0.583333 0.825223
vt 0.750000 0.825223
vt 0.666667 0.825223
vt 0.833333 0.825223
vt 0.938480 0.825223
vt 0.916667 0.825223
vt 0.041667 0.000000
vt 0.125000 0.000000
vt 0.208333 0.000000
vt 0.291667 0.000000
vt 0.375000 0.000000
vt 0.458333 0.000000
vt 0.541667 0.000000
vt 0.625000 0.000000
vt 0.708333 0.000000
vt 0.791667 0.000000
vt 0.875000 0.000000
vt 0.958333 0.000000
vt 0.123698 0.894531
vt 0.179688 0.926521
vt 0.255208 0.956051
vt 0.299480 0.968355
vt 0.378906 0.988041
vt 0.462239 0.992963
vt 0.543112 0.995423
vt 0.609375 0.985580
vt 0.684896 0.975737
vt 0.760417 0.946208
vt 0.816406 0.921600
vt 0.880208 0.894531
vt 0.406250 0.340461
vt 0.375000 0.405710
vt 0.375000 0.340461
vt 0.437500 0.340461
vt 0.406250 0.405710
vt 0.468750 0.340461
vt 0.437500 0.405710
vt 0.500000 0.340461
vt 0.468750 0.405710
vt 0.531250 0.340461
vt 0.500000 0.405710
vt 0.562500 0.340461
vt 0.531250 0.405710
vt 0.593750 0.340461
vt 0.562500 0.405710
vt 0.625000 0.340461
vt 0.593750 0.405710
vt 0.500000 0.576673
vt 0.468750 0.688440
vt 0.468750 0.576672
vt 0.437500 0.688440
vt 0.437500 0.576672
vt 0.406250 0.688440
vt 0.406250 0.576672
vt 0.375000 0.688440
vt 0.375000 0.576672
vt 0.625000 0.576672
vt 0.593750 0.688440
vt 0.593750 0.576672
vt 0.562500 0.688440
vt 0.562500 0.576672
vt 0.531250 0.688440
vt 0.531250 0.576672
vt 0.500000 0.688440
vt 0.500000 0.437813
vt 0.468750 0.563127
vt 0.468750 0.437813
vt 0.437500 0.563127
vt 0.437500 0.437813
vt 0.406250 0.563127
vt 0.406250 0.437813
vt 0.375000 0.563127
vt 0.375000 0.437813
vt 0.625000 0.437813
vt 0.593750 0.563127
vt 0.593750 0.437813
vt 0.562500 0.563127
vt 0.562500 0.437813
vt 0.531250 0.563127
vt 0.531250 0.437813
vt 0.500000 0.563127
vt 0.375000 0.312500
vt 0.406250 0.312500
vt 0.437500 0.312500
vt 0.468750 0.312500
vt 0.500000 0.312500
vt 0.531250 0.312500
vt 0.562500 0.312500
vt 0.593750 0.312500
vt 0.625000 0.312500
vt 0.625000 0.563127
vt 0.625000 0.688440
vt 0.530446 0.563127
vt 0.499196 0.563127
vt 0.469554 0.563127
vt 0.438304 0.563127
vt 0.467946 0.563127
vt 0.407054 0.563127
vt 0.436696 0.563127
vt 0.405446 0.563127
vt 0.375804 0.563127
vt 0.624196 0.563127
vt 0.594554 0.563127
vt 0.563304 0.563127
vt 0.592946 0.563127
vt 0.532054 0.563127
vt 0.561696 0.563127
vt 1.000000 0.000000
vt 0.000000 0.947736
vt 0.000000 0.000000
vt 0.436696 0.437813
vt 0.407054 0.437813
vt 0.405446 0.437813
vt 0.624196 0.437813
vt 0.625000 0.405710
vt 0.467946 0.437813
vt 0.438304 0.437813
vt 0.499196 0.437813
vt 0.469554 0.437813
vt 0.530446 0.437813
vt 0.500804 0.437813
vt 0.561696 0.437813
vt 0.532054 0.437813
vt 0.592946 0.437813
vt 0.563304 0.437813
vt 0.624300 0.312500
vt 0.594450 0.312500
vt 0.405550 0.312500
vt 0.406950 0.312500
vt 0.438200 0.312500
vt 0.499300 0.312500
vt 0.530550 0.312500
vt 0.531950 0.312500
vt 0.563200 0.312500
vt 1.000000 0.947736
vt 0.000000 1.000000
vt 1.000000 1.000000
vt 0.000000 0.129678
vt 1.000000 0.912976
vt 0.000000 0.912977
vt 1.000000 0.129678
vt 0.000000 0.912976
vt 0.000000 0.129677
vt 0.000000 0.044866
vt 1.000000 0.700030
vt 0.000000 0.700030
vt 1.000000 0.044866
vt 1.000000 0.258925
vt 0.000000 0.925900
vt 0.000000 0.258925
vt 1.000000 0.925900
vt 0.000000 0.089263
vt 1.000000 0.089263
vt 1.000000 0.912977
vt 0.000000 0.208333
vt 0.166667 0.208333
vt 0.083333 0.208333
vt 0.333333 0.208333
vt 0.250000 0.208333
vt 0.416667 0.208333
vt 0.500000 0.208333
vt 0.666667 0.208333
vt 0.583333 0.208333
vt 0.833333 0.208333
vt 0.750000 0.208333
vt 0.916667 0.208333
vt 1.000000 0.208333
vt 1.000000 0.250000
vt 0.654508 0.333333
vt 0.651648 0.250000
vt 0.832774 0.500000
vt 0.750000 0.479297
vt 0.833333 0.479297
vt 0.666667 0.413193
vt 0.655833 0.416667
vt 0.583909 0.499425
vt 0.656220 0.479285
vt 0.625008 0.499712
vt 0.677482 0.479285
vt 0.749440 0.500000
vt 0.708341 0.499712
vt 0.583333 0.479297
vt 0.500575 0.499425
vt 0.500000 0.479297
vt 0.750575 0.499425
vt 0.666667 0.480139
vt 0.666667 0.327779
vt 0.582774 0.500000
vt 0.780990 0.416667
vt 0.851838 0.509114
vt 0.992618 0.759114
vt 0.500804 0.563127
vt 0.375804 0.437813
vt 0.594554 0.437813
vt 0.375700 0.312500
vt 0.436800 0.312500
vt 0.468050 0.312500
vt 0.469450 0.312500
vt 0.500700 0.312500
vt 0.561800 0.312500
vt 0.593050 0.312500
vt 1.000000 0.129677
s 1
g off
g rv_lamp_post_2_Lamppost_glow1SG
usemtl Lamppost_glow1SG
f 1/1/1 14/2/2 13/3/3
f 2/4/4 15/5/5 14/2/2
f 4/6/6 15/5/5 3/7/7
f 5/8/8 16/9/9 4/6/6
f 5/8/8 18/10/10 17/11/11
f 7/12/12 18/10/10 6/13/13
f 7/12/12 20/14/14 19/15/15
f 8/16/16 21/17/17 20/14/14
f 10/18/18 21/17/17 9/19/19
f 11/20/20 22/21/21 10/18/18
f 11/20/20 24/22/22 23/23/23
f 1/24/1 24/22/22 12/25/24
f 13/3/3 26/26/25 25/27/26
f 14/2/2 27/28/27 26/26/25
f 16/9/9 27/28/27 15/5/5
f 17/11/11 28/29/28 16/9/9
f 17/11/11 30/30/29 29/31/30
f 19/15/15 30/30/29 18/10/10
f 19/15/15 32/32/31 31/33/32
f 20/14/14 33/34/33 32/32/31
f 22/21/21 33/34/33 21/17/17
f 23/23/23 34/35/34 22/21/21
f 23/23/23 36/36/35 35/37/36
f 13/38/3 36/36/35 24/22/22
f 26/39/25 37/40/37 25/41/26
f 27/42/27 38/43/38 26/39/25
f 27/42/27 40/44/39 39/45/40
f 28/46/28 41/47/41 40/44/39
f 29/31/30 42/48/42 41/47/41
f 31/33/32 42/48/42 30/30/29
f 32/32/31 43/49/43 31/33/32
f 33/34/33 44/50/44 32/32/31
f 33/34/33 46/51/45 45/52/46
f 34/53/34 47/54/47 46/51/45
f 35/55/36 48/56/48 47/54/47
f 25/57/26 48/56/48 36/58/35
f 37/40/37 50/59/49 49/60/50
f 39/45/40 50/59/49 38/43/38
f 39/45/40 52/61/51 51/62/52
f 41/47/41 52/61/51 40/44/39
f 41/47/41 54/63/53 53/64/54
f 43/49/43 54/63/53 42/48/42
f 43/49/43 56/65/55 55/66/56
f 45/52/46 56/65/55 44/50/44
f 45/52/46 58/67/57 57/68/58
f 47/54/47 58/67/57 46/51/45
f 47/54/47 60/69/59 59/70/60
f 37/71/37 60/69/59 48/56/48
f 50/59/49 61/72/61 49/60/50
f 50/59/49 63/73/62 62/74/63
f 52/61/51 63/73/62 51/62/52
f 52/61/51 65/75/64 64/76/65
f 54/63/53 65/75/64 53/64/54
f 54/63/53 67/77/66 66/78/67
f 56/65/55 67/77/66 55/66/56
f 56/65/55 69/79/68 68/80/69
f 58/67/57 69/79/68 57/68/58
f 58/67/57 71/81/70 70/82/71
f 60/69/59 71/81/70 59/70/60
f 60/69/59 61/83/61 72/84/72
f 61/85/61 74/86/73 73/87/74
f 62/88/63 75/89/75 74/86/73
f 64/90/65 75/89/75 63/91/62
f 65/92/64 76/93/76 64/90/65
f 65/92/64 78/94/77 77/95/78
f 67/96/66 78/94/77 66/97/67
f 67/96/66 80/98/79 79/99/80
f 68/100/69 81/101/81 80/98/79
f 70/102/71 81/101/81 69/103/68
f 71/104/70 82/105/82 70/102/71
f 71/104/70 84/106/83 83/107/84
f 61/108/61 84/106/83 72/109/72
f 73/87/74 86/110/85 85/111/86
f 74/86/73 87/112/87 86/110/85
f 75/89/75 88/113/88 87/112/87
f 77/95/78 88/113/88 76/93/76
f 78/94/77 89/114/89 77/95/78
f 78/94/77 91/115/90 90/116/91
f 79/99/80 92/117/92 91/115/90
f 80/98/79 93/118/93 92/117/92
f 81/101/81 94/119/94 93/118/93
f 83/107/84 94/119/94 82/105/82
f 84/106/83 95/120/95 83/107/84
f 84/106/83 85/121/86 96/122/96
f 85/111/86 98/123/97 97/124/98
f 87/112/87 98/123/97 86/110/85
f 88/113/88 99/125/99 87/112/87
f 89/114/89 100/126/100 88/113/88
f 90/116/91 101/127/101 89/114/89
f 90/116/91 103/128/102 102/129/103
f 91/115/90 104/130/104 103/128/102
f 93/118/93 104/130/104 92/117/92
f 94/119/94 105/131/105 93/118/93
f 95/120/95 106/132/106 94/119/94
f 96/122/96 107/133/107 95/120/95
f 96/122/96 97/134/98 108/135/108
f 97/124/98 110/136/109 109/137/110
f 99/125/99 110/136/109 98/123/97
f 99/125/99 112/138/111 111/139/112
f 101/127/101 112/138/111 100/126/100
f 102/129/103 113/140/113 101/127/101
f 103/128/102 114/141/114 102/129/103
f 103/128/102 116/142/115 115/143/116
f 105/131/105 116/142/115 104/130/104
f 105/131/105 118/144/117 117/145/118
f 107/133/107 118/144/117 106/132/106
f 108/135/108 119/146/119 107/133/107
f 97/134/98 120/147/120 108/135/108
f 110/136/109 121/148/121 109/137/110
f 111/139/112 122/149/122 110/136/109
f 111/139/112 124/150/123 123/151/124
f 112/138/111 125/152/125 124/150/123
f 114/141/114 125/152/125 113/140/113
f 114/141/114 127/153/126 126/154/127
f 116/142/115 127/153/126 115/143/116
f 117/145/118 128/155/128 116/142/115
f 117/145/118 130/156/129 129/157/130
f 118/144/117 131/158/131 130/156/129
f 120/147/120 131/158/131 119/146/119
f 120/147/120 121/159/121 132/160/132
f 2/4/4 1/1/1 133/161/133
f 3/7/7 2/4/4 133/162/133
f 4/6/6 3/7/7 133/163/133
f 5/8/8 4/6/6 133/164/133
f 6/13/13 5/8/8 133/165/133
f 7/12/12 6/13/13 133/166/133
f 8/16/16 7/12/12 133/167/133
f 9/19/19 8/16/16 133/168/133
f 10/18/18 9/19/19 133/169/133
f 11/20/20 10/18/18 133/170/133
f 12/25/24 11/20/20 133/171/133
f 1/24/1 12/25/24 133/172/133
f 121/148/121 122/149/122 134/173/134
f 122/149/122 123/151/124 134/174/134
f 123/151/124 124/150/123 134/175/134
f 124/150/123 125/152/125 134/176/134
f 125/152/125 126/154/127 134/177/134
f 126/154/127 127/153/126 134/178/134
f 127/153/126 128/155/128 134/179/134
f 128/155/128 129/157/130 134/180/134
f 129/157/130 130/156/129 134/181/134
f 130/156/129 131/158/131 134/182/134
f 131/158/131 132/160/132 134/183/134
f 132/160/132 121/159/121 134/184/134
f 1/1/1 2/4/4 14/2/2
f 2/4/4 3/7/7 15/5/5
f 4/6/6 16/9/9 15/5/5
f 5/8/8 17/11/11 16/9/9
f 5/8/8 6/13/13 18/10/10
f 7/12/12 19/15/15 18/10/10
f 7/12/12 8/16/16 20/14/14
f 8/16/16 9/19/19 21/17/17
f 10/18/18 22/21/21 21/17/17
f 11/20/20 23/23/23 22/21/21
f 11/20/20 12/25/24 24/22/22
f 1/24/1 13/38/3 24/22/22
f 13/3/3 14/2/2 26/26/25
f 14/2/2 15/5/5 27/28/27
f 16/9/9 28/29/28 27/28/27
f 17/11/11 29/31/30 28/29/28
f 17/11/11 18/10/10 30/30/29
f 19/15/15 31/33/32 30/30/29
f 19/15/15 20/14/14 32/32/31
f 20/14/14 21/17/17 33/34/33
f 22/21/21 34/35/34 33/34/33
f 23/23/23 35/37/36 34/35/34
f 23/23/23 24/22/22 36/36/35
f 13/38/3 25/322/26 36/36/35
f 26/39/25 38/43/38 37/40/37
f 27/42/27 39/45/40 38/43/38
f 27/42/27 28/46/28 40/44/39
f 28/46/28 29/31/30 41/47/41
f 29/31/30 30/30/29 42/48/42
f 31/33/32 43/49/43 42/48/42
f 32/32/31 44/50/44 43/49/43
f 33/34/33 45/52/46 44/50/44
f 33/34/33 34/53/34 46/51/45
f 34/53/34 35/55/36 47/54/47
f 35/55/36 36/58/35 48/56/48
f 25/57/26 37/71/37 48/56/48
f 37/40/37 38/43/38 50/59/49
f 39/45/40 51/62/52 50/59/49
f 39/45/40 40/44/39 52/61/51
f 41/47/41 53/64/54 52/61/51
f 41/47/41 42/48/42 54/63/53
f 43/49/43 55/66/56 54/63/53
f 43/49/43 44/50/44 56/65/55
f 45/52/46 57/68/58 56/65/55
f 45/52/46 46/51/45 58/67/57
f 47/54/47 59/70/60 58/67/57
f 47/54/47 48/56/48 60/69/59
f 37/71/37 49/343/50 60/69/59
f 50/59/49 62/74/63 61/72/61
f 50/59/49 51/62/52 63/73/62
f 52/61/51 64/76/65 63/73/62
f 52/61/51 53/64/54 65/75/64
f 54/63/53 66/78/67 65/75/64
f 54/63/53 55/66/56 67/77/66
f 56/65/55 68/80/69 67/77/66
f 56/65/55 57/68/58 69/79/68
f 58/67/57 70/82/71 69/79/68
f 58/67/57 59/70/60 71/81/70
f 60/69/59 72/84/72 71/81/70
f 60/69/59 49/343/50 61/83/61
f 61/85/61 62/88/63 74/86/73
f 62/88/63 63/91/62 75/89/75
f 64/90/65 76/93/76 75/89/75
f 65/92/64 77/95/78 76/93/76
f 65/92/64 66/97/67 78/94/77
f 67/96/66 79/99/80 78/94/77
f 67/96/66 68/100/69 80/98/79
f 68/100/69 69/103/68 81/101/81
f 70/102/71 82/105/82 81/101/81
f 71/104/70 83/107/84 82/105/82
f 71/104/70 72/109/72 84/106/83
f 61/108/61 73/344/74 84/106/83
f 73/87/74 74/86/73 86/110/85
f 74/86/73 75/89/75 87/112/87
f 75/89/75 76/93/76 88/113/88
f 77/95/78 89/114/89 88/113/88
f 78/94/77 90/116/91 89/114/89
f 78/94/77 79/99/80 91/115/90
f 79/99/80 80/98/79 92/117/92
f 80/98/79 81/101/81 93/118/93
f 81/101/81 82/105/82 94/119/94
f 83/107/84 95/120/95 94/119/94
f 84/106/83 96/122/96 95/120/95
f 84/106/83 73/344/74 85/121/86
f 85/111/86 86/110/85 98/123/97
f 87/112/87 99/125/99 98/123/97
f 88/113/88 100/126/100 99/125/99
f 89/114/89 101/127/101 100/126/100
f 90/116/91 102/129/103 101/127/101
f 90/116/91 91/115/90 103/128/102
f 91/115/90 92/117/92 104/130/104
f 93/118/93 105/131/105 104/130/104
f 94/119/94 106/132/106 105/131/105
f 95/120/95 107/133/107 106/132/106
f 96/122/96 108/135/108 107/133/107
f 96/122/96 85/121/86 97/134/98
f 97/124/98 98/123/97 110/136/109
f 99/125/99 111/139/112 110/136/109
f 99/125/99 100/126/100 112/138/111
f 101/127/101 113/140/113 112/138/111
f 102/129/103 114/141/114 113/140/113
f 103/128/102 115/143/116 114/141/114
f 103/128/102 104/130/104 116/142/115
f 105/131/105 117/145/118 116/142/115
f 105/131/105 106/132/106 118/144/117
f 107/133/107 119/146/119 118/144/117
f 108/135/108 120/147/120 119/146/119
f 97/134/98 109/345/110 120/147/120
f 110/136/109 122/149/122 121/148/121
f 111/139/112 123/151/124 122/149/122
f 111/139/112 112/138/111 124/150/123
f 112/138/111 113/140/113 125/152/125
f 114/141/114 126/154/127 125/152/125
f 114/141/114 115/143/116 127/153/126
f 116/142/115 128/155/128 127/153/126
f 117/145/118 129/157/130 128/155/128
f 117/145/118 118/144/117 130/156/129
f 118/144/117 119/146/119 131/158/131
f 120/147/120 132/160/132 131/158/131
f 120/147/120 109/345/110 121/159/121
s 2
g rv_lamp_post_2_Lamp_post_metal_mat1SG
usemtl Lamp_post_metal_mat1SG
f 209/185/135 193/186/136 208/187/137
f 211/188/138 192/189/139 209/185/135
f 213/190/140 196/191/141 211/188/138
f 215/192/142 198/193/143 213/190/140
f 217/194/144 200/195/145 215/192/142
f 219/196/146 202/197/147 217/194/144
f 221/198/148 204/199/149 219/196/146
f 208/200/137 206/201/150 221/198/148
s 3
f 175/202/151 168/203/152 178/204/153
f 178/204/153 169/205/154 180/206/155
f 180/206/155 170/207/156 182/208/157
f 182/208/157 171/209/158 184/210/159
f 184/211/159 172/212/160 186/213/161
f 186/213/161 173/214/162 188/215/163
f 188/215/163 174/216/164 190/217/165
f 190/217/165 167/218/166 175/202/151
s 4
f 159/219/167 152/220/67 160/221/67
f 160/221/67 153/222/168 161/223/168
f 161/223/168 154/224/62 162/225/62
f 162/225/62 155/226/169 163/227/169
f 163/228/169 156/229/72 164/230/72
f 164/230/72 157/231/170 165/232/170
f 165/232/170 158/233/68 166/234/68
f 166/234/68 151/235/167 159/219/167
s 2
f 135/236/133 210/237/171 207/236/172
f 162/225/134 194/227/173 191/225/174
f 137/238/133 210/237/171 136/237/133
f 162/225/134 195/223/175 161/223/134
f 137/238/133 214/239/176 212/238/177
f 160/221/134 195/223/175 197/221/178
f 139/240/133 214/239/176 138/239/133
f 160/221/134 199/219/179 159/219/134
f 139/240/133 218/241/180 216/240/181
f 166/234/134 199/219/179 201/234/182
f 141/242/133 218/241/180 140/241/133
f 166/234/134 203/232/183 165/232/134
f 141/242/133 222/243/184 220/242/185
f 164/230/134 203/232/183 205/230/186
f 135/244/133 222/243/184 142/243/133
f 164/230/134 194/228/173 163/228/134
s 3
f 152/220/133 176/235/187 177/220/188
f 146/203/134 167/218/166 147/218/134
f 152/220/133 179/222/189 153/222/133
f 146/203/134 169/205/154 168/203/152
f 154/224/133 179/222/189 181/224/190
f 144/207/134 169/205/154 145/205/134
f 154/224/133 183/226/191 155/226/133
f 144/207/134 171/209/158 170/207/156
f 156/229/133 183/245/191 185/229/192
f 150/212/134 171/246/158 143/246/134
f 156/229/133 187/231/193 157/231/133
f 150/212/134 173/214/162 172/212/160
f 158/233/133 187/231/193 189/233/194
f 148/216/134 173/214/162 149/214/134
f 158/233/133 176/235/187 151/235/133
f 148/216/134 167/218/166 174/216/164
f 175/202/151 189/247/194 190/217/165
f 176/248/187 178/204/153 177/249/188
f 178/204/153 179/250/189 177/251/188
f 180/206/155 181/252/190 179/253/189
f 181/254/190 184/210/159 183/255/191
f 183/256/191 186/213/161 185/257/192
f 186/213/161 187/258/193 185/259/192
f 188/215/163 189/260/194 187/261/193
s 5
f 135/262/169 226/263/62 136/264/62
f 136/262/62 227/263/168 137/264/168
f 137/262/168 228/263/67 138/264/67
f 138/262/67 229/263/167 139/264/167
f 139/262/167 230/263/68 140/264/68
f 140/262/68 223/263/170 141/264/170
f 141/262/170 224/263/72 142/264/72
f 142/262/72 225/263/169 135/264/169
s 2
f 192/189/139 195/265/175 191/266/174
f 191/267/174 193/186/136 192/189/139
f 194/268/173 206/201/150 193/269/136
f 196/191/141 197/270/178 195/271/175
f 198/193/143 199/272/179 197/273/178
f 200/195/145 201/274/182 199/275/179
f 202/197/147 203/276/183 201/277/182
f 204/199/149 205/278/186 203/279/183
f 207/280/172 221/198/148 222/281/184
f 208/187/137 210/282/171 209/185/135
f 210/283/171 211/188/138 209/185/135
f 212/284/177 213/190/140 211/188/138
f 213/190/140 216/285/181 215/192/142
f 215/192/142 218/286/180 217/194/144
f 218/287/180 219/196/146 217/194/144
f 220/288/185 221/198/148 219/196/146
s 6
f 231/289/195 234/290/196 232/263/197
f 232/289/197 236/290/198 235/263/199
f 235/289/199 238/290/200 237/263/201
f 237/289/201 240/290/202 239/263/203
f 241/263/204 240/291/202 242/290/205
f 241/289/204 244/290/206 243/263/207
f 243/289/207 246/290/208 245/263/209
f 231/263/195 246/291/208 233/290/210
f 224/263/211 231/289/195 232/263/197
f 286/290/212 233/291/210 284/291/213
f 224/289/211 235/263/199 225/263/214
f 286/291/212 236/290/198 234/291/196
f 226/263/215 235/289/199 237/263/201
f 274/290/216 236/291/198 272/291/217
f 226/289/215 239/263/203 227/263/218
f 274/291/216 240/290/202 238/291/200
f 228/263/219 239/289/203 241/263/204
f 278/290/220 240/291/202 276/291/221
f 228/289/219 243/263/207 229/263/222
f 278/291/220 244/290/206 242/291/205
f 230/263/223 243/289/207 245/263/209
f 282/290/224 244/291/206 280/291/225
f 230/289/223 231/263/195 223/263/226
f 282/291/224 233/290/210 246/291/208
s 7
f 273/292/134 287/293/227 289/294/228
f 273/295/134 291/296/229 275/292/134
f 277/292/134 291/293/229 293/294/230
f 277/295/134 295/296/231 279/292/134
f 281/297/134 295/293/231 297/294/232
f 281/295/134 299/296/233 283/292/134
f 285/297/134 299/293/233 301/294/234
f 285/295/134 287/296/227 271/292/134
f 290/298/235 256/299/236 258/300/236
f 290/301/237 260/300/238 292/298/239
f 294/298/240 260/299/241 262/300/242
f 294/301/243 264/300/244 296/298/245
f 298/298/246 264/299/247 266/300/247
f 298/301/248 268/300/249 300/298/250
f 302/298/251 268/299/252 270/300/253
f 302/301/254 256/300/255 288/298/256
f 255/302/257 305/303/258 257/304/259
f 259/304/260 305/305/261 307/303/262
f 259/302/263 309/303/264 261/304/265
f 263/304/266 309/305/267 311/303/268
f 263/302/269 313/303/270 265/304/271
f 267/304/272 313/305/273 315/303/274
f 267/302/275 317/303/276 269/304/277
f 255/304/278 317/305/279 303/303/280
f 306/306/281 247/291/282 248/290/282
f 306/307/283 249/290/284 308/306/285
f 308/307/286 250/290/287 310/306/288
f 310/307/289 251/290/290 312/306/291
f 314/306/292 251/291/293 252/290/293
f 314/307/294 253/290/295 316/306/296
f 318/306/297 253/291/298 254/290/298
f 318/307/299 247/290/300 304/306/301
f 255/291/257 258/300/236 256/299/236
f 256/300/255 269/291/302 255/290/278
f 257/291/303 260/300/238 258/299/304
f 259/291/263 262/300/242 260/299/241
f 262/299/305 263/290/266 264/300/244
f 263/291/269 266/300/247 264/299/247
f 265/291/306 268/300/249 266/299/307
f 267/291/275 270/300/253 268/299/252
s 8
f 271/291/308 274/290/309 272/291/308
f 271/290/308 286/291/310 285/291/310
f 274/291/309 275/290/311 276/290/311
f 275/291/311 278/290/312 276/291/311
f 278/291/312 279/290/313 280/290/313
f 279/291/313 282/290/314 280/291/313
f 282/291/314 283/290/315 284/290/315
f 283/291/315 286/290/310 284/291/315
s 7
f 287/296/227 302/291/254 288/290/256
f 288/291/316 289/294/228 287/293/227
f 290/291/237 291/296/229 289/308/228
f 291/293/229 294/290/240 293/294/230
f 294/291/243 295/296/231 293/308/230
f 296/291/317 297/294/232 295/293/231
f 298/291/248 299/296/233 297/293/232
f 299/293/233 302/290/251 301/294/234
f 304/290/301 317/305/279 318/291/299
f 304/291/318 305/303/258 303/305/319
f 306/291/283 307/303/262 305/305/261
f 308/291/286 309/303/264 307/305/320
f 310/291/289 311/303/268 309/305/267
f 312/291/321 313/303/270 311/305/322
f 314/291/294 315/303/274 313/305/273
f 316/291/323 317/303/276 315/305/324
s 9
f 332/4/325 334/3/326 331/1/327
f 332/4/325 336/5/328 333/2/329
f 335/7/330 338/9/331 336/5/328
f 337/6/332 340/11/333 338/9/331
f 341/13/334 340/11/333 339/8/335
f 343/12/336 342/10/337 341/13/334
f 343/12/336 346/14/338 344/15/339
f 345/16/340 348/17/341 346/14/338
f 347/19/342 350/21/343 348/17/341
f 349/18/344 352/23/345 350/21/343
f 353/25/346 352/23/345 351/20/347
f 331/24/327 354/22/348 353/25/346
f 333/2/329 371/309/349 334/3/326
f 333/2/329 369/310/350 370/311/351
f 338/9/331 369/310/350 336/5/328
f 338/9/331 379/312/352 368/313/353
f 340/11/333 378/314/354 379/312/352
f 344/15/339 378/314/354 342/10/337
f 346/14/338 377/315/355 344/15/339
f 346/14/338 375/316/356 376/317/357
f 350/21/343 375/316/356 348/17/341
f 350/21/343 373/318/358 374/319/359
f 352/23/345 372/320/360 373/318/358
f 372/320/360 334/38/326 371/321/349
f 332/4/325 331/1/327 367/161/133
f 335/7/330 332/4/325 367/162/133
f 337/6/332 335/7/330 367/163/133
f 339/8/335 337/6/332 367/164/133
f 341/13/334 339/8/335 367/165/133
f 343/12/336 341/13/334 367/166/133
f 345/16/340 343/12/336 367/167/133
f 347/19/342 345/16/340 367/168/133
f 349/18/344 347/19/342 367/169/133
f 351/20/347 349/18/344 367/170/133
f 353/25/346 351/20/347 367/171/133
f 331/24/327 353/25/346 367/172/133
f 320/26/361 356/27/362 355/26/363
f 321/28/364 355/26/363 357/28/365
f 322/29/366 357/28/365 358/29/367
f 323/31/368 358/29/367 359/31/369
f 324/30/370 359/31/369 360/30/371
f 324/30/370 361/33/372 325/33/373
f 325/33/373 362/32/374 326/32/375
f 326/32/375 363/34/376 327/34/377
f 327/34/377 364/35/378 328/35/379
f 328/35/379 365/37/380 329/37/381
f 329/37/381 366/36/382 330/36/383
f 319/322/384 366/36/382 356/322/362
f 369/310/350 358/29/367 357/28/365
f 370/311/351 357/28/365 355/26/363
f 370/311/351 356/27/362 371/309/349
f 366/36/382 371/321/349 356/322/362
f 372/320/360 365/37/380 373/318/358
f 374/319/359 365/37/380 364/35/378
f 375/316/356 364/35/378 363/34/376
f 376/317/357 363/34/376 362/32/374
f 376/317/357 361/33/372 377/315/355
f 377/315/355 360/30/371 378/314/354
f 378/314/354 359/31/369 379/312/352
f 368/313/353 359/31/369 358/29/367
s 10
f 436/34/385 439/323/386 437/324/387
f 440/325/388 443/326/389 441/327/390
f 439/323/386 445/328/391 444/329/392
f 446/330/393 448/331/394 449/332/395
f 445/68/391 448/331/394 444/329/392
f 450/333/396 449/332/395 448/331/394
f 450/333/396 442/334/397 451/335/398
f 447/336/399 452/337/400 453/338/401
f 454/34/402 457/323/403 455/324/404
f 459/327/405 460/339/406 461/326/407
f 462/329/408 456/52/409 463/328/410
f 440/330/388 464/331/411 465/332/412
f 462/329/408 466/340/413 464/331/411
f 466/333/413 465/332/412 464/331/411
f 466/333/413 460/334/406 467/335/414
f 468/34/415 471/323/416 469/324/417
f 472/325/418 475/326/419 473/327/420
f 471/323/416 477/328/421 476/329/422
f 458/330/423 478/331/424 479/332/425
f 477/68/421 478/331/424 476/329/422
f 480/333/426 479/332/425 478/331/424
f 480/333/426 474/334/427 481/335/428
f 482/34/429 485/323/430 483/324/431
f 486/329/432 484/52/433 487/328/434
f 472/330/418 488/331/435 489/332/436
f 486/329/432 490/340/437 488/331/435
f 490/333/437 489/332/436 488/331/435
f 490/333/437 452/334/400 491/335/438
f 393/341/439 436/34/385 391/34/440
f 392/323/441 437/324/387 439/323/386
f 388/325/442 442/339/397 440/325/388
f 389/327/443 443/326/389 387/326/444
f 394/329/445 439/323/386 444/329/392
f 395/328/446 438/52/447 393/52/439
f 384/331/448 447/336/399 383/336/449
f 382/330/450 449/332/395 397/332/451
f 385/340/452 445/68/391 395/68/446
f 384/331/448 444/329/392 448/331/394
f 396/335/453 449/332/395 451/335/398
f 385/333/452 443/326/389 450/333/396
f 386/334/454 451/335/398 442/334/397
f 380/337/455 446/342/393 382/342/450
f 383/336/449 453/338/401 381/338/456
f 407/341/457 454/34/402 405/34/458
f 406/323/459 455/324/404 457/323/403
f 400/339/460 458/325/423 402/325/461
f 403/327/462 461/326/407 401/326/463
f 408/329/464 457/323/403 462/329/408
f 409/328/465 456/52/409 407/52/457
f 398/331/466 441/336/390 389/336/443
f 388/330/442 465/332/412 411/332/467
f 399/340/468 463/68/410 409/68/465
f 398/331/466 462/329/408 464/331/411
f 411/332/467 467/335/414 410/335/469
f 399/333/468 461/326/407 466/333/413
f 400/334/460 467/335/414 460/334/406
f 421/341/470 468/34/415 419/34/471
f 420/323/472 469/324/417 471/323/416
f 416/325/473 474/339/427 472/325/418
f 417/327/474 475/326/419 415/326/475
f 422/329/476 471/323/416 476/329/422
f 423/328/477 470/52/478 421/52/470
f 412/331/479 459/336/405 403/336/462
f 402/330/461 479/332/425 425/332/480
f 413/340/481 477/68/421 423/68/477
f 412/331/479 476/329/422 478/331/424
f 424/335/482 479/332/425 481/335/428
f 413/333/481 475/326/419 480/333/426
f 414/334/483 481/335/428 474/334/427
f 431/341/484 482/34/429 429/34/485
f 430/323/486 483/324/431 485/323/430
f 432/329/487 485/323/430 486/329/432
f 433/328/488 484/52/433 431/52/484
f 426/331/489 473/336/420 417/336/474
f 416/330/473 489/332/436 435/332/490
f 427/340/491 487/68/434 433/68/488
f 426/331/489 486/329/432 488/331/435
f 435/332/490 491/335/438 434/335/492
f 427/333/491 453/326/401 490/333/437
f 380/334/455 491/335/438 452/334/400
s 2
f 209/185/135 192/189/139 193/186/136
f 211/188/138 196/191/141 192/189/139
f 213/190/140 198/193/143 196/191/141
f 215/192/142 200/195/145 198/193/143
f 217/194/144 202/197/147 200/195/145
f 219/196/146 204/199/149 202/197/147
f 221/198/148 206/201/150 204/199/149
f 208/200/137 193/269/136 206/201/150
s 3
f 175/202/151 167/218/166 168/203/152
f 178/204/153 168/203/152 169/205/154
f 180/206/155 169/205/154 170/207/156
f 182/208/157 170/207/156 171/209/158
f 184/211/159 171/246/158 172/212/160
f 186/213/161 172/212/160 173/214/162
f 188/215/163 173/214/162 174/216/164
f 190/217/165 174/216/164 167/218/166
s 4
f 159/219/167 151/235/167 152/220/67
f 160/221/67 152/220/67 153/222/168
f 161/223/168 153/222/168 154/224/62
f 162/225/62 154/224/62 155/226/169
f 163/228/169 155/245/169 156/229/72
f 164/230/72 156/229/72 157/231/170
f 165/232/170 157/231/170 158/233/68
f 166/234/68 158/233/68 151/235/167
s 2
f 135/236/133 136/237/133 210/237/171
f 162/225/134 163/227/134 194/227/173
f 137/238/133 212/238/177 210/237/171
f 162/225/134 191/225/174 195/223/175
f 137/238/133 138/239/133 214/239/176
f 160/221/134 161/223/134 195/223/175
f 139/240/133 216/240/181 214/239/176
f 160/221/134 197/221/178 199/219/179
f 139/240/133 140/241/133 218/241/180
f 166/234/134 159/219/134 199/219/179
f 141/242/133 220/242/185 218/241/180
f 166/234/134 201/234/182 203/232/183
f 141/242/133 142/243/133 222/243/184
f 164/230/134 165/232/134 203/232/183
f 135/244/133 207/244/172 222/243/184
f 164/230/134 205/230/186 194/228/173
s 3
f 152/220/133 151/235/133 176/235/187
f 146/203/134 168/203/152 167/218/166
f 152/220/133 177/220/188 179/222/189
f 146/203/134 145/205/134 169/205/154
f 154/224/133 153/222/133 179/222/189
f 144/207/134 170/207/156 169/205/154
f 154/224/133 181/224/190 183/226/191
f 144/207/134 143/209/134 171/209/158
f 156/229/133 155/245/133 183/245/191
f 150/212/134 172/212/160 171/246/158
f 156/229/133 185/229/192 187/231/193
f 150/212/134 149/214/134 173/214/162
f 158/233/133 157/231/133 187/231/193
f 148/216/134 174/216/164 173/214/162
f 158/233/133 189/233/194 176/235/187
f 148/216/134 147/218/134 167/218/166
f 175/202/151 176/346/187 189/247/194
f 176/248/187 175/202/151 178/204/153
f 178/204/153 180/206/155 179/250/189
f 180/206/155 182/208/157 181/252/190
f 181/254/190 182/208/157 184/210/159
f 183/256/191 184/211/159 186/213/161
f 186/213/161 188/215/163 187/258/193
f 188/215/163 190/217/165 189/260/194
s 5
f 135/262/169 225/289/169 226/263/62
f 136/262/62 226/289/62 227/263/168
f 137/262/168 227/289/168 228/263/67
f 138/262/67 228/289/67 229/263/167
f 139/262/167 229/289/167 230/263/68
f 140/262/68 230/289/68 223/263/170
f 141/262/170 223/289/170 224/263/72
f 142/262/72 224/289/72 225/263/169
s 2
f 192/189/139 196/191/141 195/265/175
f 191/267/174 194/347/173 193/186/136
f 194/268/173 205/348/186 206/201/150
f 196/191/141 198/193/143 197/270/178
f 198/193/143 200/195/145 199/272/179
f 200/195/145 202/197/147 201/274/182
f 202/197/147 204/199/149 203/276/183
f 204/199/149 206/201/150 205/278/186
f 207/280/172 208/200/137 221/198/148
f 208/187/137 207/349/172 210/282/171
f 210/283/171 212/350/177 211/188/138
f 212/284/177 214/351/176 213/190/140
f 213/190/140 214/352/176 216/285/181
f 215/192/142 216/353/181 218/286/180
f 218/287/180 220/354/185 219/196/146
f 220/288/185 222/355/184 221/198/148
s 6
f 231/289/195 233/291/210 234/290/196
f 232/289/197 234/291/196 236/290/198
f 235/289/199 236/291/198 238/290/200
f 237/289/201 238/291/200 240/290/202
f 241/263/204 239/289/203 240/291/202
f 241/289/204 242/291/205 244/290/206
f 243/289/207 244/291/206 246/290/208
f 231/263/195 245/289/209 246/291/208
f 224/263/211 223/289/226 231/289/195
f 286/290/212 234/290/196 233/291/210
f 224/289/211 232/289/197 235/263/199
f 286/291/212 272/290/217 236/290/198
f 226/263/215 225/289/214 235/289/199
f 274/290/216 238/290/200 236/291/198
f 226/289/215 237/289/201 239/263/203
f 274/291/216 276/290/221 240/290/202
f 228/263/219 227/289/218 239/289/203
f 278/290/220 242/290/205 240/291/202
f 228/289/219 241/289/204 243/263/207
f 278/291/220 280/290/225 244/290/206
f 230/263/223 229/289/222 243/289/207
f 282/290/224 246/290/208 244/291/206
f 230/289/223 245/289/209 231/263/195
f 282/291/224 284/290/213 233/290/210
s 7
f 273/292/134 271/295/134 287/293/227
f 273/295/134 289/308/228 291/296/229
f 277/292/134 275/295/134 291/293/229
f 277/295/134 293/308/230 295/296/231
f 281/297/134 279/356/134 295/293/231
f 281/295/134 297/293/232 299/296/233
f 285/297/134 283/295/134 299/293/233
f 285/295/134 301/308/234 287/296/227
f 290/298/235 288/301/316 256/299/236
f 290/301/237 258/299/304 260/300/238
f 294/298/240 292/301/493 260/299/241
f 294/301/243 262/299/305 264/300/244
f 298/298/246 296/301/317 264/299/247
f 298/301/248 266/299/307 268/300/249
f 302/298/251 300/301/494 268/299/252
f 302/301/254 270/299/495 256/300/255
f 255/302/257 303/305/319 305/303/258
f 259/304/260 257/302/303 305/305/261
f 259/302/263 307/305/320 309/303/264
f 263/304/266 261/302/496 309/305/267
f 263/302/269 311/305/322 313/303/270
f 267/304/272 265/302/306 313/305/273
f 267/302/275 315/305/324 317/303/276
f 255/304/278 269/302/302 317/305/279
f 306/306/281 304/307/318 247/291/282
f 306/307/283 248/291/284 249/290/284
f 308/307/286 249/291/287 250/290/287
f 310/307/289 250/291/290 251/290/290
f 314/306/292 312/307/321 251/291/293
f 314/307/294 252/291/295 253/290/295
f 318/306/297 316/307/323 253/291/298
f 318/307/299 254/291/300 247/290/300
f 255/291/257 257/290/259 258/300/236
f 256/300/255 270/299/495 269/291/302
f 257/291/303 259/290/260 260/300/238
f 259/291/263 261/290/265 262/300/242
f 262/299/305 261/291/496 263/290/266
f 263/291/269 265/290/271 266/300/247
f 265/291/306 267/290/272 268/300/249
f 267/291/275 269/290/277 270/300/253
s 8
f 271/291/308 273/290/309 274/290/309
f 271/290/308 272/290/308 286/291/310
f 274/291/309 273/291/309 275/290/311
f 275/291/311 277/290/312 278/290/312
f 278/291/312 277/291/312 279/290/313
f 279/291/313 281/290/314 282/290/314
f 282/291/314 281/291/314 283/290/315
f 283/291/315 285/290/310 286/290/310
s 7
f 287/296/227 301/308/234 302/291/254
f 288/291/316 290/290/235 289/294/228
f 290/291/237 292/290/239 291/296/229
f 291/293/229 292/291/493 294/290/240
f 294/291/243 296/290/245 295/296/231
f 296/291/317 298/290/246 297/294/232
f 298/291/248 300/290/250 299/296/233
f 299/293/233 300/291/494 302/290/251
f 304/290/301 303/303/280 317/305/279
f 304/291/318 306/290/281 305/303/258
f 306/291/283 308/290/285 307/303/262
f 308/291/286 310/290/288 309/303/264
f 310/291/289 312/290/291 311/303/268
f 312/291/321 314/290/292 313/303/270
f 314/291/294 316/290/296 315/303/274
f 316/291/323 318/290/297 317/303/276
s 9
f 332/4/325 333/2/329 334/3/326
f 332/4/325 335/7/330 336/5/328
f 335/7/330 337/6/332 338/9/331
f 337/6/332 339/8/335 340/11/333
f 341/13/334 342/10/337 340/11/333
f 343/12/336 344/15/339 342/10/337
f 343/12/336 345/16/340 346/14/338
f 345/16/340 347/19/342 348/17/341
f 347/19/342 349/18/344 350/21/343
f 349/18/344 351/20/347 352/23/345
f 353/25/346 354/22/348 352/23/345
f 331/24/327 334/38/326 354/22/348
f 333/2/329 370/311/351 371/309/349
f 333/2/329 336/5/328 369/310/350
f 338/9/331 368/313/353 369/310/350
f 338/9/331 340/11/333 379/312/352
f 340/11/333 342/10/337 378/314/354
f 344/15/339 377/315/355 378/314/354
f 346/14/338 376/317/357 377/315/355
f 346/14/338 348/17/341 375/316/356
f 350/21/343 374/319/359 375/316/356
f 350/21/343 352/23/345 373/318/358
f 352/23/345 354/22/348 372/320/360
f 372/320/360 354/22/348 334/38/326
f 320/26/361 319/27/384 356/27/362
f 321/28/364 320/26/361 355/26/363
f 322/29/366 321/28/364 357/28/365
f 323/31/368 322/29/366 358/29/367
f 324/30/370 323/31/368 359/31/369
f 324/30/370 360/30/371 361/33/372
f 325/33/373 361/33/372 362/32/374
f 326/32/375 362/32/374 363/34/376
f 327/34/377 363/34/376 364/35/378
f 328/35/379 364/35/378 365/37/380
f 329/37/381 365/37/380 366/36/382
f 319/322/384 330/36/383 366/36/382
f 369/310/350 368/313/353 358/29/367
f 370/311/351 369/310/350 357/28/365
f 370/311/351 355/26/363 356/27/362
f 366/36/382 372/320/360 371/321/349
f 372/320/360 366/36/382 365/37/380
f 374/319/359 373/318/358 365/37/380
f 375/316/356 374/319/359 364/35/378
f 376/317/357 375/316/356 363/34/376
f 376/317/357 362/32/374 361/33/372
f 377/315/355 361/33/372 360/30/371
f 378/314/354 360/30/371 359/31/369
f 368/313/353 379/312/352 359/31/369
s 10
f 436/34/385 438/341/447 439/323/386
f 440/325/388 442/339/397 443/326/389
f 439/323/386 438/52/447 445/328/391
f 446/330/393 447/336/399 448/331/394
f 445/68/391 450/340/396 448/331/394
f 450/333/396 451/335/398 449/332/395
f 450/333/396 443/326/389 442/334/397
f 447/336/399 446/342/393 452/337/400
f 454/34/402 456/341/409 457/323/403
f 459/327/405 458/325/423 460/339/406
f 462/329/408 457/323/403 456/52/409
f 440/330/388 441/336/390 464/331/411
f 462/329/408 463/68/410 466/340/413
f 466/333/413 467/335/414 465/332/412
f 466/333/413 461/326/407 460/334/406
f 468/34/415 470/341/478 471/323/416
f 472/325/418 474/339/427 475/326/419
f 471/323/416 470/52/478 477/328/421
f 458/330/423 459/336/405 478/331/424
f 477/68/421 480/340/426 478/331/424
f 480/333/426 481/335/428 479/332/425
f 480/333/426 475/326/419 474/334/427
f 482/34/429 484/341/433 485/323/430
f 486/329/432 485/323/430 484/52/433
f 472/330/418 473/336/420 488/331/435
f 486/329/432 487/68/434 490/340/437
f 490/333/437 491/335/438 489/332/436
f 490/333/437 453/326/401 452/334/400
f 393/341/439 438/341/447 436/34/385
f 392/323/441 390/324/497 437/324/387
f 388/325/442 386/339/454 442/339/397
f 389/327/443 441/327/390 443/326/389
f 394/329/445 392/323/441 439/323/386
f 395/328/446 445/328/391 438/52/447
f 384/331/448 448/331/394 447/336/399
f 382/330/450 446/330/393 449/332/395
f 385/340/452 450/340/396 445/68/391
f 384/331/448 394/329/445 444/329/392
f 396/335/453 397/332/451 449/332/395
f 385/333/452 387/326/444 443/326/389
f 386/334/454 396/335/453 451/335/398
f 380/337/455 452/337/400 446/342/393
f 383/336/449 447/336/399 453/338/401
f 407/341/457 456/341/409 454/34/402
f 406/323/459 404/324/498 455/324/404
f 400/339/460 460/339/406 458/325/423
f 403/327/462 459/327/405 461/326/407
f 408/329/464 406/323/459 457/323/403
f 409/328/465 463/328/410 456/52/409
f 398/331/466 464/331/411 441/336/390
f 388/330/442 440/330/388 465/332/412
f 399/340/468 466/340/413 463/68/410
f 398/331/466 408/329/464 462/329/408
f 411/332/467 465/332/412 467/335/414
f 399/333/468 401/326/463 461/326/407
f 400/334/460 410/335/469 467/335/414
f 421/341/470 470/341/478 468/34/415
f 420/323/472 418/324/499 469/324/417
f 416/325/473 414/339/483 474/339/427
f 417/327/474 473/327/420 475/326/419
f 422/329/476 420/323/472 471/323/416
f 423/328/477 477/328/421 470/52/478
f 412/331/479 478/331/424 459/336/405
f 402/330/461 458/330/423 479/332/425
f 413/340/481 480/340/426 477/68/421
f 412/331/479 422/329/476 476/329/422
f 424/335/482 425/332/480 479/332/425
f 413/333/481 415/326/475 475/326/419
f 414/334/483 424/335/482 481/335/428
f 431/341/484 484/341/433 482/34/429
f 430/323/486 428/324/500 483/324/431
f 432/329/487 430/323/486 485/323/430
f 433/328/488 487/328/434 484/52/433
f 426/331/489 488/331/435 473/336/420
f 416/330/473 472/330/418 489/332/436
f 427/340/491 490/340/437 487/68/434
f 426/331/489 432/329/487 486/329/432
f 435/332/490 489/332/436 491/335/438
f 427/333/491 381/326/456 453/326/401
f 380/334/455 434/335/492 491/335/438
