# Blender 3.6.2
# www.blender.org
mtllib puertaizq.mtl
g puertaizq_Mesh
v 0.036666 -3.985078 0.282302
v 1.831279 2.954885 0.282303
v 1.649477 2.933715 0.282303
v 1.423836 2.884021 0.282303
v 1.215524 2.814890 0.282303
v 1.061095 2.746226 0.282303
v 0.917315 2.666213 0.282303
v 0.783992 2.575337 0.282302
v 0.660929 2.474082 0.282302
v 0.547932 2.362933 0.282302
v 0.420543 2.210822 0.282302
v 0.308196 2.044957 0.282302
v 0.210510 1.866285 0.282302
v 0.127104 1.675752 0.282302
v 0.089608 1.560726 0.282302
v 0.055283 1.401064 0.282302
v 0.026898 1.153700 0.282302
v 0.020512 0.488310 0.282302
v 0.036666 -0.166263 0.282302
v 0.036666 -3.985078 -0.282302
v 1.831279 2.954885 -0.282302
v 1.649477 2.933715 -0.282302
v 1.423836 2.884021 -0.282302
v 1.215524 2.814890 -0.282302
v 1.061095 2.746226 -0.282302
v 0.917315 2.666213 -0.282302
v 0.783992 2.575337 -0.282302
v 0.660929 2.474082 -0.282302
v 0.547932 2.362933 -0.282302
v 0.420543 2.210822 -0.282302
v 0.308196 2.044957 -0.282302
v 0.210510 1.866285 -0.282302
v 0.127104 1.675752 -0.282302
v 0.089608 1.560726 -0.282302
v 0.055283 1.401064 -0.282302
v 0.026898 1.153700 -0.282302
v 0.020512 0.488310 -0.282302
v 0.036666 -0.166263 -0.282302
v 0.036666 -3.985078 0.282302
v 1.649477 2.933715 0.282303
v 1.423836 2.884021 0.282303
v 1.215524 2.814890 0.282303
v 1.061095 2.746226 0.282303
v 0.917315 2.666213 0.282303
v 0.783992 2.575337 0.282302
v 0.660929 2.474082 0.282302
v 0.547932 2.362933 0.282302
v 0.420543 2.210822 0.282302
v 0.308196 2.044957 0.282302
v 0.210510 1.866285 0.282302
v 0.127104 1.675752 0.282302
v 0.089608 1.560726 0.282302
v 0.055283 1.401064 0.282302
v 0.026898 1.153700 0.282302
v 0.020512 0.488310 0.282302
v 0.036666 -0.166263 0.282302
v 0.036666 -3.985078 -0.282302
v 1.831279 2.954885 -0.282302
v 1.649477 2.933715 -0.282302
v 1.423836 2.884021 -0.282302
v 1.215524 2.814890 -0.282302
v 1.061095 2.746226 -0.282302
v 0.917315 2.666213 -0.282302
v 0.783992 2.575337 -0.282302
v 0.660929 2.474082 -0.282302
v 0.547932 2.362933 -0.282302
v 0.420543 2.210822 -0.282302
v 0.308196 2.044957 -0.282302
v 0.210510 1.866285 -0.282302
v 0.127104 1.675752 -0.282302
v 0.089608 1.560726 -0.282302
v 0.055283 1.401064 -0.282302
v 0.026898 1.153700 -0.282302
v 0.020512 0.488310 -0.282302
v 0.036666 -0.166263 -0.282302
v 1.841273 2.100420 0.282302
v 1.831809 2.909636 0.282303
v 1.890815 -2.135494 0.282302
v 1.840334 2.180766 0.282302
v 1.850743 1.290642 0.282302
v 1.831707 2.918379 0.282303
v 1.833292 2.782851 0.282303
v 1.838512 2.336424 0.282302
v 1.834257 2.700294 0.282302
v 1.833009 2.806958 0.282303
v 1.856190 0.824990 0.282302
v 1.831943 2.898181 0.282303
v 1.852203 1.165840 0.282302
v 1.864302 0.131494 0.282302
v 1.839408 2.259910 0.282302
v 1.832723 2.831530 0.282303
v 1.868212 -0.202804 0.282302
v 1.846352 1.666251 0.282302
v 1.912448 -3.985078 0.282302
v 1.835975 1.792097 -0.282302
v 1.839894 0.822001 -0.282302
v 1.832443 2.666033 -0.282302
v 1.842665 0.135681 -0.282302
v 1.834087 2.259726 -0.282302
v 1.844031 -0.202322 -0.282302
v 1.834407 2.180240 -0.282302
v 1.831552 2.887063 -0.282302
v 1.838005 1.289685 -0.282302
v 1.834734 2.099481 -0.282302
v 1.831461 2.909682 -0.282302
v 1.859313 -3.985078 -0.282302
v 1.831874 2.807172 -0.282302
v 1.831424 2.918402 -0.282302
v 1.832305 2.700656 -0.282302
v 1.851997 -2.174217 -0.282302
v 1.831972 2.783177 -0.282302
v 1.838506 1.165749 -0.282302
v 1.831507 2.898266 -0.282302
vn -0.0000 -0.0000 -1.0000
vn -0.1157 0.9933 -0.0000
vn -0.2151 0.9766 -0.0000
vn -0.3150 0.9491 -0.0000
vn -0.4063 0.9137 -0.0000
vn -0.4863 0.8738 -0.0000
vn -0.5632 0.8263 -0.0000
vn -0.6354 0.7722 -0.0000
vn -0.7013 0.7129 -0.0000
vn -0.7667 0.6421 -0.0000
vn -0.8279 0.5608 -0.0000
vn -0.8774 0.4797 -0.0000
vn -0.9161 0.4010 -0.0000
vn -0.9508 0.3099 -0.0000
vn -0.9777 0.2102 -0.0000
vn -0.9935 0.1140 -0.0000
vn -1.0000 0.0096 -0.0000
vn -0.9997 -0.0247 -0.0000
vn -1.0000 -0.0000 -0.0000
vn -0.0000 -0.0000 1.0000
vn -0.0000 0.0001 1.0000
vt 0.810175 0.251580
vt 0.799993 0.456495
vt 0.720419 0.228065
vt 0.075214 0.225882
vt 0.004023 0.225882
vt 0.004023 0.212614
vt 0.075214 0.242630
vt 0.004023 0.242630
vt 0.075214 0.258541
vt 0.004023 0.258541
vt 0.075214 0.270792
vt 0.004023 0.270792
vt 0.075214 0.282720
vt 0.004023 0.282720
vt 0.075214 0.294416
vt 0.004023 0.294416
vt 0.075214 0.305968
vt 0.004023 0.305968
vt 0.075214 0.317458
vt 0.004023 0.317458
vt 0.075214 0.331841
vt 0.004023 0.331841
vt 0.075214 0.346363
vt 0.004023 0.346363
vt 0.075214 0.361124
vt 0.004023 0.361124
vt 0.075214 0.376201
vt 0.004023 0.376201
vt 0.075214 0.384971
vt 0.004023 0.384971
vt 0.075214 0.396810
vt 0.004023 0.396810
vt 0.075214 0.414859
vt 0.004023 0.414859
vt 0.075214 0.463095
vt 0.004023 0.463095
vt 0.075214 0.510560
vt 0.004023 0.510560
vt 0.075214 0.787386
vt 0.004023 0.787386
vt 0.008203 0.600906
vt 0.238571 0.638928
vt 0.005995 0.683437
vt 0.237367 0.726369
vt 0.006626 0.767337
vt 0.029591 0.857235
vt 0.010140 0.798535
vt 0.019124 0.833189
vt 0.014426 0.818676
vt 0.235152 0.887184
vt 0.041861 0.879790
vt 0.235013 0.897315
vt 0.055984 0.900733
vt 0.156065 0.977108
vt 0.072007 0.919946
vt 0.118503 0.958283
vt 0.086225 0.933990
vt 0.136611 0.968410
vt 0.101716 0.946790
vt 0.234111 0.962820
vt 0.182313 0.985879
vt 0.233883 0.979367
vt 0.210751 0.992204
vt 0.234743 0.916941
vt 0.072470 0.226679
vt 0.299876 0.456495
vt 0.071542 0.456495
vt 0.944034 0.433561
vt 0.927985 0.456495
vt 0.937883 0.405085
vt 0.914554 0.456495
vt 0.929272 0.378784
vt 0.872625 0.294378
vt 0.920693 0.359277
vt 0.910677 0.341107
vt 0.886582 0.308682
vt 0.899287 0.324251
vt 0.853511 0.278238
vt 0.848934 0.456495
vt 0.832654 0.263988
vt 0.838751 0.456495
vt 0.751595 0.231770
vt 0.786193 0.240966
vt 0.771709 0.236180
vt 0.677672 0.456495
vt 0.636524 0.226921
vt 0.591133 0.456495
vt 0.553981 0.228625
vt 0.736643 0.456495
vt 0.075214 0.212614
vt 0.233747 0.989215
vt 0.233732 0.990318
vt 0.233968 0.973230
vt 0.233926 0.976269
vt 0.236775 0.769346
vt 0.236558 0.785082
vt 0.245719 0.119883
vt 0.242508 0.353091
vt 0.009202 0.119392
vt 0.233767 0.987771
vt 0.234876 0.907294
vt 0.235907 0.832441
vt 0.858957 0.456495
vt 0.910189 0.456495
vt 0.721016 0.456495
vt 0.940911 0.456495
vt 0.939471 0.456495
vt 0.924959 0.456495
vt 0.938059 0.456495
vt 0.942010 0.456495
vt 0.946610 0.456495
vt 0.239152 0.596778
vt 0.548514 0.456495
s 0
g off
g puertaizq_Mat_1
usemtl Mat_1
f 69/1/1 95/2/1 73/3/1
f 22/4/2 3/5/2 2/6/2
f 23/7/3 4/8/3 3/5/3
f 24/9/4 5/10/4 4/8/4
f 25/11/5 6/12/5 5/10/5
f 26/13/6 7/14/6 6/12/6
f 27/15/7 8/16/7 7/14/7
f 28/17/8 9/18/8 8/16/8
f 29/19/9 10/20/9 9/18/9
f 30/21/10 11/22/10 10/20/10
f 31/23/11 12/24/11 11/22/11
f 32/25/12 13/26/12 12/24/12
f 33/27/13 14/28/13 13/26/13
f 34/29/14 15/30/14 14/28/14
f 35/31/15 16/32/15 15/30/15
f 36/33/16 17/34/16 16/32/16
f 37/35/17 18/36/17 17/34/17
f 38/37/18 19/38/18 18/36/18
f 20/39/19 1/40/19 19/38/19
f 56/41/20 89/42/20 55/43/20
f 86/44/20 54/45/20 55/43/20
f 54/45/20 50/46/20 53/47/20
f 53/47/20 51/48/20 52/49/20
f 50/46/20 51/48/20 53/47/20
f 76/50/20 49/51/20 50/46/20
f 79/52/20 48/53/20 49/51/20
f 48/53/20 42/54/20 47/55/20
f 47/55/20 44/56/20 46/57/20
f 42/54/20 43/58/20 47/55/20
f 46/57/21 44/56/21 45/59/21
f 44/56/20 47/55/20 43/58/20
f 84/60/20 41/61/20 42/54/20
f 91/62/20 40/63/20 41/61/20
f 42/54/20 83/64/20 84/60/20
f 57/65/1 110/66/1 106/67/1
f 59/68/1 107/69/1 60/70/1
f 60/70/1 109/71/1 61/72/1
f 61/72/1 66/73/1 62/74/1
f 62/74/1 66/73/1 63/75/1
f 66/73/1 65/76/1 63/75/1
f 63/75/1 65/76/1 64/77/1
f 66/73/1 61/72/1 67/78/1
f 67/78/1 101/79/1 68/80/1
f 68/80/1 104/81/1 69/1/1
f 69/1/1 72/82/1 70/83/1
f 70/83/1 72/82/1 71/84/1
f 72/82/1 69/1/1 73/3/1
f 73/3/1 96/85/1 74/86/1
f 98/87/1 75/88/1 74/86/1
f 75/88/1 110/66/1 57/65/1
f 73/3/1 95/2/1 103/89/1
f 22/4/2 2/6/2 21/90/2
f 23/7/3 3/5/3 22/4/3
f 24/9/4 4/8/4 23/7/4
f 25/11/5 5/10/5 24/9/5
f 26/13/6 6/12/6 25/11/6
f 27/15/7 7/14/7 26/13/7
f 28/17/8 8/16/8 27/15/8
f 29/19/9 9/18/9 28/17/9
f 30/21/10 10/20/10 29/19/10
f 31/23/11 11/22/11 30/21/11
f 32/25/12 12/24/12 31/23/12
f 33/27/13 13/26/13 32/25/13
f 34/29/14 14/28/14 33/27/14
f 35/31/15 15/30/15 34/29/15
f 36/33/16 16/32/16 35/31/16
f 37/35/17 17/34/17 36/33/17
f 38/37/18 18/36/18 37/35/18
f 20/39/19 19/38/19 38/37/19
f 77/91/20 81/92/20 40/63/20
f 82/93/20 85/94/20 41/61/20
f 88/95/20 80/96/20 54/45/20
f 94/97/20 78/98/20 39/99/20
f 78/98/20 56/41/20 39/99/20
f 87/100/20 77/91/20 40/63/20
f 85/94/20 91/62/20 41/61/20
f 90/101/20 83/64/20 48/53/20
f 89/42/20 86/44/20 55/43/20
f 93/102/20 76/50/20 50/46/20
f 80/96/20 50/46/20 54/45/20
f 99/103/1 61/72/1 97/104/1
f 103/89/1 112/105/1 73/3/1
f 109/71/1 97/104/1 61/72/1
f 105/106/1 113/107/1 59/68/1
f 96/85/1 98/87/1 74/86/1
f 107/69/1 111/108/1 60/70/1
f 113/107/1 102/109/1 59/68/1
f 108/110/1 105/106/1 59/68/1
f 108/110/1 59/68/1 58/111/1
f 69/1/1 104/81/1 95/2/1
f 56/41/20 92/112/20 89/42/20
f 86/44/20 88/95/20 54/45/20
f 76/50/20 79/52/20 49/51/20
f 79/52/20 90/101/20 48/53/20
f 84/60/20 82/93/20 41/61/20
f 91/62/20 87/100/20 40/63/20
f 42/54/20 48/53/20 83/64/20
f 59/68/1 102/109/1 107/69/1
f 60/70/1 111/108/1 109/71/1
f 67/78/1 99/103/1 101/79/1
f 68/80/1 101/79/1 104/81/1
f 73/3/1 112/105/1 96/85/1
f 98/87/1 100/113/1 75/88/1
f 75/88/1 100/113/1 110/66/1
f 78/98/20 92/112/20 56/41/20
f 80/96/20 93/102/20 50/46/20
f 99/103/1 67/78/1 61/72/1
