# Blender 3.6.2
# www.blender.org
mtllib puertader.mtl
g puertaderecha_Mesh
v -0.012593 -3.441014 0.282302
v -0.012593 0.302923 0.282302
v -0.017754 1.722757 0.282302
v -0.051304 1.977396 0.282302
v -0.080464 2.111211 0.282302
v -0.118104 2.234792 0.282302
v -0.183350 2.390086 0.282302
v -0.268892 2.547402 0.282302
v -0.373780 2.703390 0.282302
v -0.497060 2.854692 0.282302
v -0.637780 2.997956 0.282302
v -0.794988 3.129831 0.282302
v -0.967731 3.246964 0.282303
v -1.155058 3.345997 0.282303
v -1.304550 3.406378 0.282303
v -1.461308 3.453279 0.282303
v -1.624930 3.485284 0.282303
v -1.795013 3.500979 0.282303
v -1.971157 3.498950 0.282303
v -0.012593 -3.441014 -0.282302
v -0.012593 0.302922 -0.282302
v -0.017754 1.722757 -0.282302
v -0.051304 1.977396 -0.282302
v -0.080464 2.111211 -0.282302
v -0.118104 2.234792 -0.282302
v -0.183350 2.390086 -0.282302
v -0.268892 2.547402 -0.282302
v -0.373780 2.703390 -0.282302
v -0.497060 2.854692 -0.282302
v -0.637780 2.997956 -0.282302
v -0.794988 3.129831 -0.282302
v -0.967731 3.246964 -0.282302
v -1.155058 3.345997 -0.282302
v -1.304550 3.406378 -0.282302
v -1.461308 3.453279 -0.282302
v -1.624930 3.485284 -0.282302
v -1.795013 3.500979 -0.282302
v -1.971157 3.498950 -0.282302
v -0.012593 -3.441014 0.282302
v -0.012593 0.302923 0.282302
v -0.017754 1.722757 0.282302
v -0.051304 1.977396 0.282302
v -0.080464 2.111211 0.282302
v -0.118104 2.234792 0.282302
v -0.183350 2.390086 0.282302
v -0.268892 2.547402 0.282302
v -0.373780 2.703390 0.282302
v -0.497060 2.854692 0.282302
v -0.637780 2.997956 0.282302
v -0.794988 3.129831 0.282302
v -0.967731 3.246964 0.282303
v -1.155058 3.345997 0.282303
v -1.304550 3.406378 0.282303
v -1.461308 3.453279 0.282303
v -1.624930 3.485284 0.282303
v -1.795013 3.500979 0.282303
v -1.971157 3.498950 0.282303
v -2.152959 3.477779 0.282303
v -0.012593 -3.441014 -0.282302
v -0.012593 0.302922 -0.282302
v -0.017754 1.722757 -0.282302
v -0.051304 1.977396 -0.282302
v -0.080464 2.111211 -0.282302
v -0.118104 2.234792 -0.282302
v -0.183350 2.390086 -0.282302
v -0.268892 2.547402 -0.282302
v -0.373780 2.703390 -0.282302
v -0.497060 2.854692 -0.282302
v -0.637780 2.997956 -0.282302
v -0.794988 3.129831 -0.282302
v -0.967731 3.246964 -0.282302
v -1.155058 3.345997 -0.282302
v -1.304550 3.406378 -0.282302
v -1.461308 3.453279 -0.282302
v -1.624930 3.485284 -0.282302
v -1.795013 3.500979 -0.282302
v -1.971157 3.498950 -0.282302
v -1.961163 2.644485 0.282302
v -1.970628 3.453701 0.282303
v -1.911621 -1.591430 0.282302
v -1.962103 2.724830 0.282302
v -1.951693 1.834706 0.282302
v -1.970730 3.462443 0.282303
v -1.969144 3.326915 0.282303
v -1.963924 2.880488 0.282302
v -1.968179 3.244359 0.282303
v -1.969427 3.351023 0.282303
v -1.946246 1.369054 0.282302
v -1.970493 3.442245 0.282303
v -1.950233 1.709904 0.282302
v -1.938134 0.675559 0.282302
v -1.963028 2.803974 0.282302
v -1.969713 3.375594 0.282303
v -1.934225 0.341261 0.282302
v -1.956084 2.210316 0.282302
v -1.889988 -3.441014 0.282302
v -1.966461 2.336161 -0.282302
v -1.962543 1.366066 -0.282302
v -1.969993 3.210097 -0.282302
v -1.959771 0.679746 -0.282302
v -1.968349 2.803790 -0.282302
v -1.958405 0.341743 -0.282302
v -1.968029 2.724305 -0.282302
v -1.970884 3.431127 -0.282302
v -1.964431 1.833750 -0.282302
v -1.967702 2.643546 -0.282302
v -1.970975 3.453747 -0.282302
v -1.943124 -3.441014 -0.282302
v -1.970562 3.351236 -0.282302
v -1.971012 3.462467 -0.282302
v -1.970131 3.244720 -0.282302
v -1.950440 -1.630153 -0.282302
v -1.970465 3.327241 -0.282302
v -1.963930 1.709813 -0.282302
v -1.970929 3.442330 -0.282302
vn -0.0000 -0.0000 1.0000
vn 1.0000 -0.0000 -0.0000
vn 1.0000 0.0036 -0.0000
vn 0.9914 0.1306 -0.0000
vn 0.9771 0.2129 -0.0000
vn 0.9566 0.2914 -0.0000
vn 0.9219 0.3873 -0.0000
vn 0.8785 0.4777 -0.0000
vn 0.8298 0.5580 -0.0000
vn 0.7752 0.6317 -0.0000
vn 0.7134 0.7007 -0.0000
vn 0.6427 0.7661 -0.0000
vn 0.5612 0.8277 -0.0000
vn 0.4674 0.8841 -0.0000
vn 0.3745 0.9272 -0.0000
vn 0.2866 0.9580 -0.0000
vn 0.1920 0.9814 -0.0000
vn 0.0919 0.9958 -0.0000
vn -0.0115 0.9999 -0.0000
vn -0.0000 -0.0000 -1.0000
vt 0.987535 0.462796
vt 0.749834 0.467161
vt 0.753008 0.228104
vt 0.441525 0.521268
vt 0.511363 0.521268
vt 0.511363 0.789061
vt 0.441525 0.419711
vt 0.511363 0.419711
vt 0.441525 0.401340
vt 0.511363 0.401340
vt 0.441525 0.391544
vt 0.511363 0.391544
vt 0.441525 0.382304
vt 0.511363 0.382304
vt 0.441525 0.370255
vt 0.511363 0.370255
vt 0.441525 0.357447
vt 0.511363 0.357447
vt 0.441525 0.344002
vt 0.511363 0.344002
vt 0.441525 0.330042
vt 0.511363 0.330042
vt 0.441525 0.315678
vt 0.511363 0.315678
vt 0.441525 0.301001
vt 0.511363 0.301001
vt 0.441525 0.286073
vt 0.511363 0.286073
vt 0.441525 0.270917
vt 0.511363 0.270917
vt 0.441525 0.259385
vt 0.511363 0.259385
vt 0.441525 0.247681
vt 0.511363 0.247681
vt 0.441525 0.235756
vt 0.511363 0.235756
vt 0.441525 0.223539
vt 0.511363 0.223539
vt 0.441525 0.210939
vt 0.511363 0.210939
vt 0.982418 0.669910
vt 0.746763 0.698347
vt 0.747380 0.651887
vt 0.845623 0.838980
vt 0.744740 0.850726
vt 0.868813 0.826767
vt 0.744707 0.853224
vt 0.744647 0.857740
vt 0.722163 0.855085
vt 0.807721 0.852190
vt 0.766434 0.858025
vt 0.827120 0.846420
vt 0.787475 0.856117
vt 0.744721 0.852143
vt 0.744889 0.839442
vt 0.890203 0.812313
vt 0.744929 0.836460
vt 0.909675 0.796031
vt 0.745788 0.771777
vt 0.927109 0.778338
vt 0.942388 0.759647
vt 0.955392 0.740373
vt 0.966004 0.720931
vt 0.978785 0.686456
vt 0.974105 0.701735
vt 0.747585 0.636450
vt 0.986618 0.638419
vt 0.749285 0.508511
vt 0.988268 -0.000305
vt 0.419079 0.496767
vt 0.291036 0.256033
vt 0.466662 0.256104
vt 0.291665 0.496767
vt 0.259522 0.260055
vt 0.208410 0.276182
vt 0.242956 0.263595
vt 0.227651 0.268189
vt 0.188908 0.286685
vt 0.169561 0.299580
vt 0.150785 0.314754
vt 0.106088 0.496767
vt 0.132994 0.332088
vt 0.091598 0.496767
vt 0.116603 0.351468
vt 0.078747 0.496767
vt 0.102028 0.372776
vt 0.077362 0.496767
vt 0.089685 0.395898
vt 0.075949 0.496767
vt 0.082142 0.414359
vt 0.070358 0.496767
vt 0.076262 0.433725
vt 0.070195 0.474978
vt 0.072221 0.453948
vt 0.074871 0.496767
vt 0.156346 0.496767
vt 0.441525 0.789061
vt 0.745065 0.826249
vt 0.745662 0.781241
vt 0.748145 0.594290
vt 0.745918 0.761988
vt 0.746050 0.752050
vt 0.744849 0.842482
vt 0.176167 0.496767
vt 0.166178 0.496767
vt 0.334185 0.496767
vt 0.704801 0.496767
vt 0.460888 0.496767
vt 0.929759 0.257974
vt 0.928795 0.496767
vt 0.088629 0.496767
vt 0.101805 0.496767
vt 0.276334 0.496767
vt 0.214189 0.496767
vt 0.756047 -0.000673
s 0
g off
g puertaderecha_Mat_1
usemtl Mat_1
f 40/1/1 94/2/1 80/3/1
f 21/4/2 2/5/2 1/6/2
f 22/7/3 3/8/3 2/5/3
f 23/9/4 4/10/4 3/8/4
f 24/11/5 5/12/5 4/10/5
f 25/13/6 6/14/6 5/12/6
f 26/15/7 7/16/7 6/14/7
f 27/17/8 8/18/8 7/16/8
f 28/19/9 9/20/9 8/18/9
f 29/21/10 10/22/10 9/20/10
f 30/23/11 11/24/11 10/22/11
f 31/25/12 12/26/12 11/24/12
f 32/27/13 13/28/13 12/26/13
f 33/29/14 14/30/14 13/28/14
f 34/31/15 15/32/15 14/30/15
f 35/33/16 16/34/16 15/32/16
f 36/35/17 17/36/17 16/34/17
f 37/37/18 18/38/18 17/36/18
f 38/39/19 19/40/19 18/38/19
f 42/41/1 95/42/1 82/43/1
f 52/44/1 89/45/1 51/46/1
f 83/47/1 57/48/1 58/49/1
f 57/48/1 54/50/1 56/51/1
f 53/52/1 54/50/1 57/48/1
f 56/51/1 54/50/1 55/53/1
f 53/52/1 79/54/1 52/44/1
f 51/46/1 87/55/1 50/56/1
f 50/56/1 84/57/1 49/58/1
f 49/58/1 92/59/1 48/60/1
f 48/60/1 42/41/1 47/61/1
f 47/61/1 42/41/1 46/62/1
f 46/62/1 42/41/1 45/63/1
f 45/63/1 43/64/1 44/65/1
f 42/41/1 43/64/1 45/63/1
f 42/41/1 90/66/1 41/67/1
f 41/67/1 91/68/1 40/1/1
f 80/3/1 39/69/1 40/1/1
f 48/60/1 95/42/1 42/41/1
f 100/70/20 61/71/20 60/72/20
f 114/73/20 62/74/20 61/71/20
f 62/74/20 65/75/20 63/76/20
f 63/76/20 65/75/20 64/77/20
f 65/75/20 62/74/20 66/78/20
f 66/78/20 62/74/20 67/79/20
f 67/79/20 62/74/20 68/80/20
f 99/81/20 69/82/20 68/80/20
f 113/83/20 70/84/20 69/82/20
f 104/85/20 71/86/20 70/84/20
f 115/87/20 72/88/20 71/86/20
f 107/89/20 73/90/20 72/88/20
f 73/90/20 77/91/20 74/92/20
f 77/91/20 76/93/20 74/92/20
f 74/92/20 76/93/20 75/94/20
f 77/91/20 73/90/20 110/95/20
f 68/80/20 101/96/20 99/81/20
f 21/4/2 1/6/2 20/97/2
f 22/7/3 2/5/3 21/4/3
f 23/9/4 3/8/4 22/7/4
f 24/11/5 4/10/5 23/9/5
f 25/13/6 5/12/6 24/11/6
f 26/15/7 6/14/7 25/13/7
f 27/17/8 7/16/8 26/15/8
f 28/19/9 8/18/9 27/17/9
f 29/21/10 9/20/10 28/19/10
f 30/23/11 10/22/11 29/21/11
f 31/25/12 11/24/12 30/23/12
f 32/27/13 12/26/13 31/25/13
f 33/29/14 13/28/14 32/27/14
f 34/31/15 14/30/15 33/29/15
f 35/33/16 15/32/16 34/31/16
f 36/35/17 16/34/17 35/33/17
f 37/37/18 17/36/18 36/35/18
f 38/39/19 18/38/19 37/37/19
f 86/98/1 85/99/1 49/58/1
f 90/66/1 88/100/1 41/67/1
f 92/59/1 81/101/1 48/60/1
f 84/57/1 86/98/1 49/58/1
f 91/68/1 94/2/1 40/1/1
f 81/101/1 78/102/1 48/60/1
f 89/45/1 93/103/1 51/46/1
f 106/104/20 103/105/20 68/80/20
f 98/106/20 114/73/20 61/71/20
f 112/107/20 102/108/20 60/72/20
f 112/107/20 59/109/20 108/110/20
f 109/111/20 104/85/20 70/84/20
f 111/112/20 113/83/20 69/82/20
f 103/105/20 101/96/20 68/80/20
f 102/108/20 100/70/20 60/72/20
f 105/113/20 68/80/20 62/74/20
f 97/114/20 106/104/20 68/80/20
f 52/44/1 79/54/1 89/45/1
f 83/47/1 53/52/1 57/48/1
f 53/52/1 83/47/1 79/54/1
f 51/46/1 93/103/1 87/55/1
f 50/56/1 87/55/1 84/57/1
f 49/58/1 85/99/1 92/59/1
f 42/41/1 82/43/1 90/66/1
f 41/67/1 88/100/1 91/68/1
f 80/3/1 96/115/1 39/69/1
f 48/60/1 78/102/1 95/42/1
f 100/70/20 98/106/20 61/71/20
f 114/73/20 105/113/20 62/74/20
f 99/81/20 111/112/20 69/82/20
f 113/83/20 109/111/20 70/84/20
f 104/85/20 115/87/20 71/86/20
f 115/87/20 107/89/20 72/88/20
f 107/89/20 110/95/20 73/90/20
f 112/107/20 60/72/20 59/109/20
f 105/113/20 97/114/20 68/80/20
